<?xml version="1.0" encoding="utf-8"?>
<!-- Generator: Adobe Illustrator 23.0.2, SVG Export Plug-In . SVG Version: 6.00 Build 0)  -->
<svg version="1.1" id="Layer_1" xmlns="http://www.w3.org/2000/svg" xmlns:xlink="http://www.w3.org/1999/xlink" x="0px" y="0px"
	 viewBox="0 0 687 190" style="enable-background:new 0 0 687 190;" xml:space="preserve">
<style type="text/css">
	.st0{fill-rule:evenodd;clip-rule:evenodd;fill:url(#SVGID_1_);}
	.st1{fill-rule:evenodd;clip-rule:evenodd;fill:#99B356;}
	.st2{fill:#99B356;}
	.st3{fill:#FFFFFF;}
	.st4{fill:none;stroke:#FFFFFF;stroke-width:1.0969;stroke-linecap:round;stroke-miterlimit:10;}
</style>
<g>
	<g>
		<g>
			
				<linearGradient id="SVGID_1_" gradientUnits="userSpaceOnUse" x1="625.2394" y1="301.3104" x2="672.12" y2="334.1365" gradientTransform="matrix(-0.4839 -2.6408 -2.6408 0.4839 1239.5514 1653.9877)">
				<stop  offset="0.2342" style="stop-color:#7E9C41"/>
				<stop  offset="0.465" style="stop-color:#8DA94C"/>
				<stop  offset="0.6781" style="stop-color:#99B356"/>
			</linearGradient>
			<path class="st0" d="M118.33,23.74C134.6,79.9,161.62,196.38,58,165.11c33.48-28.24,47.43-46.95,58.29-111.32
				c-11.93,54.54-32.86,77.53-69.82,103.55C-19.32,84.96,102.06,79.15,118.33,23.74L118.33,23.74z"/>
			<path class="st1" d="M133.8,103.25c2.29,44.27-11.94,81.14-75.81,61.86c13.49-11.38,23.81-21.22,32.04-33.12
				C108.06,128.33,123.6,117.8,133.8,103.25L133.8,103.25z M75.98,133.41c-8.49,8.35-18.26,16-29.53,23.94
				c-16.19-17.81-21.03-31.58-18.91-43.06c12.64,11.86,29.64,19.13,48.34,19.13C75.92,133.41,75.95,133.41,75.98,133.41
				L75.98,133.41z"/>
		</g>
	</g>
	<g>
		<g>
			<g>
				<path class="st2" d="M167.94,41.26l30.3,40.32l29.87-40.32h1.22v67.2h-8.67V68.61l-22.07,27.66h-1.04l-22.07-27.23v39.41h-8.67
					v-67.2H167.94z"/>
				<path class="st2" d="M291.92,51.64c-3.21-2.51-6.59-3.47-9.63-3.47c-7.2,0-12.4,5.03-12.4,13c0,6.85,3.9,13.01,11.96,13.01
					c4.85,0,7.98-2.25,10.4-5.64l4.16,3.47c-2.86,4.85-7.8,8.58-15.61,8.58c-12.4,0-18.73-9.45-18.73-19.51
					c0-11.79,8.76-19.33,19.33-19.33c5.03,0,10.23,1.73,14.22,4.94L291.92,51.64z"/>
				<path class="st2" d="M368.9,55.57c-6.42-3.47-13.7-5.72-20.38-5.72c-8.24,0-13.53,3.47-13.53,10.23c0,5.03,2.95,7.11,8.32,9.02
					c4.42,1.56,13.7,3.99,18.9,6.16c7.55,3.12,11.1,7.46,11.1,15.09c0,11.7-8.24,18.99-23.15,18.99c-6.42,0-17.17-1.39-24.8-6.16
					l2.08-8.15c7.02,3.99,16.47,5.72,22.63,5.72c9.45,0,14.13-4.08,14.13-10.75c0-4.51-2.17-7.11-7.89-9.02
					c-3.47-1.13-12.92-3.64-17.95-5.64c-7.02-2.77-12.4-7.2-12.4-16.04c0-11.53,9.1-18.03,23.06-18.03c7.72,0,15.26,1.99,21.94,6.07
					L368.9,55.57z"/>
				<path class="st2" d="M449.18,42.13v9.02h-19.33v57.31h-9.19V51.14H401.4v-9.02H449.18z"/>
				<path class="st2" d="M500.32,41.26l29.48,67.2h-9.89l-7.2-17.17h-26.36l-7.28,17.17h-9.54l29.56-67.2H500.32z M489.05,84.78
					h20.89l-10.4-24.71L489.05,84.78z"/>
				<path class="st2" d="M568.46,42.13v66.33h-9.19V42.13H568.46z"/>
				<path class="st2" d="M604.69,41.26l43.44,46.73V42.13h8.84v67.2h-1.13l-43.44-46.73v45.87h-8.84v-67.2H604.69z"/>
			</g>
		</g>
		<g>
			<path class="st3" d="M245.86,129.28h-1c-0.76,0-1.34,0.58-1.34,1.34v14.04l-11.1-14.83c-0.21-0.32-0.62-0.54-1.07-0.54
				c-0.79,0-1.37,0.58-1.37,1.35v20.87c0,0.76,0.58,1.34,1.34,1.34h0.98c0.76,0,1.34-0.58,1.34-1.34v-13.94l11.04,14.73
				c0.21,0.32,0.62,0.54,1.07,0.54h0.1c0.76,0,1.34-0.58,1.34-1.34v-20.88C247.2,129.85,246.63,129.28,245.86,129.28z"/>
			<path class="st3" d="M274.3,129.28H261c-0.76,0-1.34,0.58-1.34,1.34v20.88c0,0.76,0.58,1.34,1.34,1.34h13.3
				c0.76,0,1.34-0.58,1.34-1.34v-0.98c0-0.76-0.58-1.34-1.34-1.34h-10.98v-6.29h6.93c0.76,0,1.34-0.57,1.34-1.34v-0.98
				c0-0.76-0.58-1.34-1.34-1.34h-6.93v-6.28h10.98c0.76,0,1.34-0.57,1.34-1.34v-1C275.63,129.85,275.06,129.28,274.3,129.28z"/>
			<path class="st3" d="M288.64,129.26h-1c-0.76,0-1.34,0.58-1.34,1.34v20.9c0,0.76,0.58,1.34,1.34,1.34h1
				c0.76,0,1.34-0.58,1.34-1.34v-20.9C289.98,129.84,289.4,129.26,288.64,129.26z"/>
			<path class="st3" d="M320.7,140.28h-5.65c-0.76,0-1.34,0.58-1.34,1.34v1c0,0.76,0.58,1.34,1.34,1.34h3.33v3.28
				c-1.5,1.3-3.23,1.94-5.27,1.94c-1.14,0-2.25-0.24-3.28-0.7c-1.01-0.44-1.9-1.08-2.65-1.89c-0.76-0.81-1.33-1.74-1.7-2.78
				c-0.39-1.07-0.54-2.21-0.46-3.37c0.17-2.12,1.02-3.87,2.61-5.34c1.57-1.44,3.36-2.14,5.46-2.14c2.3,0.01,4.14,0.77,5.71,2.34
				c0.3,0.27,0.62,0.4,0.95,0.4c0.33,0,0.65-0.13,0.91-0.36l0.75-0.73c0.54-0.54,0.55-1.36,0.01-1.9c-1.21-1.19-2.61-2.08-4.16-2.66
				c-1.3-0.5-2.69-0.75-4.1-0.75h0c-0.26,0-0.52,0.01-0.79,0.03c-2.87,0.17-5.38,1.29-7.47,3.32c-2.09,2.03-3.27,4.51-3.52,7.38
				c-0.15,1.74,0.07,3.45,0.66,5.08c0.58,1.56,1.46,2.96,2.61,4.16c1.16,1.19,2.53,2.11,4.06,2.73c1.4,0.57,2.88,0.85,4.4,0.85
				c0.21,0,0.41-0.01,0.62-0.02c1.48-0.08,2.92-0.44,4.3-1.07c1.34-0.64,2.54-1.49,3.59-2.55c0.28-0.28,0.42-0.61,0.42-0.97v-6.6
				C322.04,140.86,321.47,140.28,320.7,140.28z M308.27,133.19c0.16-0.1,0.34-0.16,0.5-0.26
				C308.6,133.02,308.43,133.09,308.27,133.19z M309.77,132.42c0.21-0.08,0.43-0.12,0.65-0.18
				C310.21,132.31,309.98,132.34,309.77,132.42z M311.4,131.97c0.24-0.04,0.49-0.04,0.73-0.06
				C311.89,131.93,311.64,131.93,311.4,131.97z M319.75,134.55c-0.05,0-0.1-0.02-0.15-0.07c0.1,0.09,0.2,0.09,0.3,0
				C319.85,134.53,319.8,134.55,319.75,134.55z M315.23,130.63c-0.1-0.02-0.2-0.04-0.29-0.06
				C315.03,130.59,315.13,130.61,315.23,130.63z M313.16,130.41c0.05,0,0.09,0.01,0.14,0.01c-0.28,0-0.56-0.01-0.85,0.01
				C312.69,130.42,312.93,130.41,313.16,130.41z M310.18,151.29c-0.35-0.1-0.7-0.22-1.04-0.36
				C309.49,151.07,309.83,151.19,310.18,151.29z M313.12,151.71c-0.12,0-0.23-0.01-0.35-0.02c0.3,0.01,0.6,0.02,0.91,0
				C313.49,151.7,313.3,151.71,313.12,151.71z M310.53,151.38c0.24,0.06,0.47,0.12,0.71,0.16
				C311,151.49,310.76,151.44,310.53,151.38z M311.66,151.6c0.22,0.03,0.44,0.06,0.67,0.07C312.1,151.65,311.88,151.63,311.66,151.6
				z"/>
			<path class="st3" d="M349.88,129.29h-1c-0.76,0-1.34,0.57-1.34,1.34v8.57h-9.89v-8.6c0-0.76-0.57-1.34-1.32-1.34h-1
				c-0.76,0-1.34,0.58-1.34,1.34v9.73v1.41v9.73c0,0.76,0.58,1.34,1.34,1.34h1c0.75,0,1.32-0.58,1.32-1.34v-8.6h9.89v8.63
				c0,0.76,0.58,1.34,1.34,1.34h1c0.76,0,1.32-0.58,1.32-1.34v-9.76v-1.41v-9.7C351.2,129.87,350.63,129.29,349.88,129.29z"/>
			<path class="st3" d="M377.39,139.97c0.27-0.31,0.51-0.66,0.72-1.02c0.52-0.89,0.81-1.88,0.84-2.93c0.07-1.83-0.54-3.44-1.82-4.76
				c-1.27-1.31-2.84-1.98-4.67-1.98H365c-0.76,0-1.34,0.58-1.34,1.34v20.88c0,0.76,0.58,1.34,1.34,1.34h8.06
				c1.98,0,3.7-0.71,5.12-2.11c1.45-1.42,2.16-3.14,2.12-5.13c-0.02-1.43-0.45-2.75-1.27-3.94
				C378.57,141,378.02,140.43,377.39,139.97z M373.2,149.18h-5.88v-6.9h5.88c0.96,0,1.75,0.33,2.43,1.01
				c0.69,0.68,1.02,1.48,1.02,2.44c0,0.95-0.33,1.75-1.02,2.42C374.94,148.85,374.15,149.18,373.2,149.18z M374.46,137.78
				c-0.56,0.56-1.2,0.83-2,0.83h-5.15v-5.67h5.15c0.79,0,1.44,0.27,2,0.83c0.57,0.57,0.83,1.21,0.83,2.01
				C375.29,136.56,375.02,137.22,374.46,137.78z"/>
			<path class="st3" d="M410.71,132.71c-1.1-1.09-2.36-1.93-3.75-2.52c-1.45-0.62-3-0.94-4.59-0.94s-3.14,0.32-4.59,0.94
				c-1.39,0.59-2.65,1.43-3.74,2.51c-1.08,1.09-1.93,2.35-2.54,3.75c-0.62,1.46-0.93,3.01-0.93,4.6c0,1.59,0.31,3.13,0.92,4.59
				c0.61,1.41,1.46,2.66,2.53,3.75c1.1,1.09,2.35,1.94,3.75,2.53c1.46,0.61,3,0.92,4.6,0.92c1.59,0,3.14-0.31,4.59-0.92
				c1.4-0.6,2.66-1.45,3.75-2.53c1.09-1.09,1.93-2.36,2.52-3.76c0.62-1.45,0.94-3,0.94-4.59c0-1.59-0.32-3.14-0.94-4.59
				C412.64,135.05,411.79,133.79,410.71,132.71z M402.37,149.17c-1.09,0-2.15-0.22-3.16-0.64c-0.97-0.41-1.84-0.99-2.59-1.74
				c-0.74-0.74-1.33-1.61-1.74-2.58c-0.42-1.01-0.64-2.07-0.64-3.16c0-1.09,0.21-2.15,0.64-3.16c0.41-0.97,0.99-1.84,1.74-2.59
				c0.74-0.74,1.61-1.33,2.58-1.73c1.01-0.42,2.07-0.64,3.16-0.64s2.15,0.21,3.16,0.64c0.97,0.41,1.84,0.99,2.59,1.74
				c0.74,0.74,1.33,1.61,1.74,2.58c0.42,1.01,0.64,2.07,0.64,3.16c0,1.09-0.22,2.16-0.64,3.16c-0.41,0.97-0.99,1.84-1.74,2.58
				c-0.75,0.75-1.61,1.33-2.58,1.74C404.52,148.95,403.46,149.17,402.37,149.17z"/>
			<path class="st3" d="M440.71,136.02c-0.04-1.86-0.73-3.47-2.05-4.78c-1.34-1.31-2.96-1.96-4.81-1.96h-7.65
				c-0.76,0-1.34,0.58-1.34,1.34v8.17v3.08v9.64c0,0.76,0.58,1.34,1.34,1.34h1c0.75,0,1.32-0.58,1.32-1.34v-8.51h3.07l5.01,9.16
				c0.25,0.44,0.68,0.69,1.17,0.69h1.13c0.49,0,0.92-0.25,1.16-0.68c0.24-0.43,0.23-0.91,0-1.32l-4.44-8.12
				c1.13-0.31,2.14-0.9,3.03-1.77C440.05,139.59,440.73,137.92,440.71,136.02z M433.85,139.32h-5.33v-0.54v-5.85h5.33
				c0.89,0,1.62,0.31,2.25,0.93c0.62,0.63,0.93,1.38,0.93,2.27c0,0.89-0.3,1.62-0.93,2.25
				C435.48,139.01,434.74,139.32,433.85,139.32z"/>
			<path class="st3" d="M468.07,129.29h-1c-0.76,0-1.34,0.57-1.34,1.34v8.57h-9.89v-8.6c0-0.76-0.57-1.34-1.32-1.34h-1
				c-0.76,0-1.34,0.58-1.34,1.34v9.73v1.41v9.73c0,0.76,0.58,1.34,1.34,1.34h1c0.75,0,1.32-0.58,1.32-1.34v-8.6h9.89v8.63
				c0,0.76,0.58,1.34,1.34,1.34h1c0.76,0,1.32-0.58,1.32-1.34v-9.76v-1.41v-9.7C469.4,129.87,468.83,129.29,468.07,129.29z"/>
			<path class="st3" d="M500.73,132.71c-1.1-1.09-2.36-1.93-3.75-2.52c-1.45-0.62-3-0.94-4.59-0.94c-1.59,0-3.14,0.32-4.59,0.94
				c-1.39,0.59-2.65,1.43-3.74,2.51c-1.08,1.09-1.93,2.35-2.54,3.75c-0.62,1.46-0.93,3.01-0.93,4.6c0,1.59,0.31,3.13,0.92,4.59
				c0.61,1.41,1.46,2.66,2.53,3.75c1.1,1.09,2.35,1.94,3.75,2.53c1.46,0.61,3,0.92,4.6,0.92c1.59,0,3.14-0.31,4.59-0.92
				c1.4-0.6,2.66-1.45,3.75-2.53c1.09-1.09,1.93-2.36,2.52-3.76c0.62-1.45,0.94-3,0.94-4.59c0-1.59-0.32-3.14-0.94-4.59
				C502.65,135.05,501.81,133.79,500.73,132.71z M492.38,149.17c-1.09,0-2.15-0.22-3.16-0.64c-0.97-0.41-1.84-0.99-2.59-1.74
				c-0.74-0.74-1.33-1.61-1.74-2.58c-0.42-1.01-0.64-2.07-0.64-3.16c0-1.09,0.21-2.15,0.64-3.16c0.41-0.97,0.99-1.84,1.74-2.59
				c0.74-0.74,1.61-1.33,2.58-1.73c1.01-0.42,2.07-0.64,3.16-0.64c1.09,0,2.15,0.21,3.16,0.64c0.97,0.41,1.84,0.99,2.59,1.74
				c0.74,0.74,1.33,1.61,1.74,2.58c0.43,1.01,0.64,2.07,0.64,3.16c0,1.09-0.22,2.16-0.64,3.16c-0.41,0.97-0.99,1.84-1.74,2.58
				c-0.75,0.75-1.61,1.33-2.58,1.74C494.54,148.95,493.47,149.17,492.38,149.17z"/>
			<path class="st3" d="M535.02,132.71c-1.1-1.09-2.36-1.93-3.75-2.52c-1.45-0.62-3-0.94-4.59-0.94s-3.14,0.32-4.59,0.94
				c-1.39,0.59-2.65,1.43-3.74,2.51c-1.08,1.09-1.93,2.35-2.54,3.75c-0.62,1.46-0.93,3.01-0.93,4.6c0,1.59,0.31,3.14,0.92,4.59
				c0.61,1.41,1.46,2.67,2.53,3.75c1.1,1.09,2.35,1.94,3.75,2.53c1.46,0.61,3,0.92,4.6,0.92c1.59,0,3.14-0.31,4.59-0.92
				c1.4-0.6,2.66-1.45,3.75-2.53c1.09-1.09,1.93-2.36,2.52-3.76c0.62-1.45,0.94-2.99,0.94-4.59c0-1.59-0.32-3.14-0.94-4.59
				C536.95,135.05,536.1,133.79,535.02,132.71z M526.68,149.17c-1.09,0-2.15-0.22-3.16-0.64c-0.97-0.41-1.84-0.99-2.59-1.74
				c-0.74-0.74-1.33-1.61-1.74-2.58c-0.42-1.01-0.64-2.07-0.64-3.16c0-1.09,0.21-2.15,0.64-3.16c0.41-0.97,0.99-1.84,1.74-2.59
				c0.74-0.74,1.61-1.33,2.58-1.73c1.01-0.42,2.07-0.64,3.16-0.64s2.15,0.21,3.16,0.64c0.97,0.41,1.84,0.99,2.59,1.74
				c0.74,0.74,1.33,1.61,1.74,2.58c0.43,1.01,0.64,2.07,0.64,3.16c0,1.09-0.22,2.16-0.64,3.16c-0.41,0.97-0.99,1.84-1.74,2.58
				c-0.75,0.75-1.61,1.33-2.58,1.74C528.83,148.95,527.77,149.17,526.68,149.17z"/>
			<path class="st3" d="M565.26,132.63c-1.08-1.07-2.33-1.9-3.72-2.48c-1.44-0.6-2.97-0.91-4.55-0.91h-6.47
				c-0.76,0-1.34,0.58-1.34,1.34v20.91c0,0.76,0.58,1.34,1.34,1.34h6.29c1.61,0,3.18-0.32,4.67-0.95c1.43-0.59,2.72-1.46,3.83-2.56
				c1.12-1.12,1.98-2.4,2.58-3.81c0.63-1.49,0.93-3.07,0.89-4.69c-0.02-1.56-0.35-3.08-0.97-4.5
				C567.19,134.93,566.34,133.69,565.26,132.63z M556.98,149.17h-4.14v-16.26h4.14c1.1,0,2.17,0.22,3.17,0.64
				c0.96,0.41,1.82,1,2.57,1.75c0.76,0.75,1.34,1.62,1.75,2.58c0.43,1,0.64,2.06,0.64,3.16c0,1.09-0.22,2.16-0.64,3.16
				c-0.41,0.97-0.99,1.84-1.75,2.58c-0.75,0.75-1.62,1.33-2.58,1.74C559.15,148.95,558.08,149.17,556.98,149.17z"/>
			<path class="st3" d="M593.76,146l-0.02-0.15l-0.01-0.24c0-0.07-0.01-0.22-0.04-0.41l-0.07-0.34c-0.2-0.98-0.64-1.88-1.3-2.66
				c-0.54-0.62-1.22-1.19-2.04-1.71c-0.58-0.37-1.3-0.74-2.13-1.12l-0.96-0.44l-0.49-0.23l-0.24-0.11l-0.3-0.13
				c-0.7-0.31-1.28-0.59-1.71-0.84c-0.51-0.3-0.92-0.62-1.21-0.94l-0.09-0.12l-0.04-0.06l-0.04-0.05l-0.01-0.01l-0.06-0.1
				l-0.06-0.11l-0.02-0.04l-0.02-0.04l-0.02-0.04l-0.04-0.07l-0.01-0.03l-0.06-0.19l-0.01-0.02l0-0.01l-0.02-0.13l-0.01-0.19
				l-0.01-0.09l0.01-0.2c0-0.13,0.02-0.2,0.03-0.3l0.02-0.09v-0.05l0.05-0.23c0.08-0.27,0.23-0.55,0.45-0.77
				c0.23-0.25,0.51-0.43,0.87-0.56c0.32-0.13,0.73-0.23,1.21-0.29l0.11-0.01l0.19-0.02c0.15-0.02,0.22-0.03,0.29-0.03h0.36h0.34
				c0.25,0.01,0.62,0.06,1.06,0.14c0.55,0.12,1.11,0.33,1.64,0.61c0.18,0.11,0.41,0.26,0.65,0.43c0.07,0.06,0.17,0.13,0.29,0.21
				c0.06,0.05,0.12,0.1,0.19,0.15c0.24,0.2,0.53,0.3,0.83,0.3c0.34,0,0.67-0.14,0.93-0.39l0.63-0.62c0.27-0.26,0.41-0.6,0.41-0.96
				c0-0.35-0.15-0.69-0.41-0.95l-0.03-0.03l-0.03-0.03c-0.1-0.08-0.17-0.15-0.22-0.19l-0.05-0.05l-0.06-0.04
				c-0.21-0.16-0.42-0.31-0.64-0.45c-0.23-0.17-0.54-0.35-0.85-0.52c-0.8-0.43-1.66-0.75-2.55-0.95c-0.66-0.13-1.22-0.2-1.71-0.21
				l-0.38-0.01l-0.02,0h-0.02h-0.4c-0.15,0-0.33,0.01-0.54,0.04l-0.15,0.01l-0.22,0.01l-0.04,0l-0.04,0.01
				c-0.79,0.1-1.46,0.27-2.05,0.5c-0.83,0.34-1.54,0.8-2.11,1.37c-0.67,0.66-1.13,1.48-1.38,2.45l-0.07,0.25l-0.01,0.04l-0.01,0.04
				c-0.03,0.13-0.05,0.25-0.06,0.36c-0.03,0.24-0.05,0.46-0.06,0.62l0,0.36v0.09v0.07l0.01,0.14l0.01,0.05v0.19v0.11l0.02,0.11
				l0.06,0.31l0.03,0.17l0.02,0.13l0.01,0.08l0.02,0.08l0.08,0.25c0.04,0.14,0.09,0.28,0.16,0.44l0.06,0.12l0.04,0.1l0.02,0.06
				l0.03,0.06c0.08,0.15,0.2,0.35,0.36,0.6l0.13,0.18l0.1,0.13c0.11,0.14,0.2,0.25,0.29,0.34c0.49,0.54,1.18,1.1,2.02,1.6
				c0.56,0.33,1.27,0.68,2.11,1.05l0.28,0.12l0.17,0.08l0.45,0.22l1.04,0.47c1.75,0.81,2.54,1.47,2.89,1.89
				c0.27,0.32,0.45,0.67,0.53,1.06l0.01,0.04l0.01,0.06l0.02,0.06l0,0.01c0,0.01,0,0.01,0,0.01v0.04l0,0.04l0.01,0.18v0.05
				l-0.01,0.3l0,0.11l-0.01,0.05l-0.03,0.21l-0.03,0.16c-0.08,0.36-0.23,0.71-0.46,1.01c-0.22,0.28-0.5,0.5-0.84,0.67
				c-0.34,0.18-0.74,0.31-1.2,0.42l-0.17,0.03l-0.04,0.01l-0.04,0.01l-0.14,0.03c-0.11,0.01-0.2,0.02-0.28,0.03l-0.38,0.03
				l-0.32,0.01l-0.15,0h-0.09l-0.07,0.01l-0.35-0.01c-0.1,0-0.17-0.01-0.23-0.02l-0.24-0.02l-0.17-0.01
				c-0.28-0.04-0.65-0.12-1.06-0.23c-0.58-0.15-1.13-0.39-1.66-0.69c-0.21-0.12-0.39-0.23-0.56-0.36c-0.14-0.1-0.26-0.19-0.37-0.28
				l-0.09-0.08l-0.1-0.09c-0.2-0.19-0.53-0.32-0.86-0.32c-0.36,0-0.69,0.15-0.95,0.41l-0.69,0.64c-0.57,0.57-0.56,1.39-0.03,1.92
				c0.15,0.13,0.26,0.23,0.38,0.33c0.19,0.16,0.4,0.31,0.61,0.46c0.25,0.17,0.53,0.36,0.82,0.53c0.81,0.46,1.65,0.81,2.52,1.05
				c0.59,0.16,1.14,0.26,1.65,0.32l0.17,0.02l0.04,0.01l0.04,0l0.21,0.02c0.14,0.02,0.32,0.03,0.47,0.03l0.34,0.01l0.02,0h0.08h0.18
				h0.04l0.04,0l0.21-0.02l0.38-0.01l0.04,0l0.04,0l0.4-0.04c0.17,0,0.36-0.03,0.57-0.07l0.18-0.02l0.05-0.01l0.05-0.01l0.22-0.05
				c0.82-0.18,1.55-0.44,2.17-0.76c0.82-0.42,1.51-0.99,2.05-1.69c0.57-0.72,0.96-1.58,1.15-2.54l0.05-0.36l0.04-0.3l0.01-0.08
				v-0.08v-0.07l0.01-0.05l0.01-0.04l0-0.04l0.02-0.25l0-0.03v-0.11v-0.09v-0.06L593.76,146z M591.3,133.53
				c-0.04,0-0.08-0.02-0.13-0.06C591.22,133.51,591.26,133.53,591.3,133.53L591.3,133.53z"/>
		</g>
		<line class="st4" x1="166.82" y1="139.73" x2="212.57" y2="139.73"/>
		<line class="st4" x1="611.22" y1="139.73" x2="656.97" y2="139.73"/>
	</g>
</g>
</svg>
