<?xml version="1.0" encoding="utf-8"?>
<!-- Generator: Adobe Illustrator 26.0.2, SVG Export Plug-In . SVG Version: 6.00 Build 0)  -->
<svg version="1.1" id="Layer_1" xmlns="http://www.w3.org/2000/svg" xmlns:xlink="http://www.w3.org/1999/xlink" x="0px" y="0px"
	 viewBox="0 0 460 460" style="enable-background:new 0 0 460 460;" xml:space="preserve">
<style type="text/css">
	.st0{fill:#CBDD64;}
	.st1{fill:#A95488;}
	.st2{fill:#414042;}
</style>
<g>
	<path class="st0" d="M122.5,146.6c3.2,2.9,6.9,5,10.8,6.4c3.9,1.4,8.1,2,12.3,2.2c8.4,0.3,16.8-1.1,25.2-2.5
		c8.4-1.4,16.8-3.3,25-5.6c8.3-2.2,16.4-4.9,24.7-7c16.6-4.1,34-6.7,51.4-4.3c4.3,0.7,8.5,1.7,12.7,2.8c4.2,1.1,8.3,2.4,12.3,3.8
		c8.1,2.7,16.2,5.7,24.2,8.7l-0.1,0.3l-24.7-7.1c-8.2-2.3-16.4-4.6-24.8-5.6c-8.3-1.1-16.8-0.7-25.3-0.1c-8.4,0.6-16.8,2.1-25.2,3.7
		c-8.4,1.6-16.7,3.5-25,5.7c-8.3,2.1-16.4,4.7-24.8,6.8c-8.3,2.1-17,3.3-25.7,2.7c-4.4-0.3-8.7-1.2-12.7-3c-4-1.7-7.6-4.4-10.4-7.7
		L122.5,146.6L122.5,146.6z"/>
	<path class="st1" d="M170.4,315.3c0-2.6-0.7-4.6-2.2-6.1c-1.5-1.5-3.7-2.2-6.5-2.2H153v16.9h8.2c2.8,0,5.1-0.8,6.7-2.3
		C169.6,320,170.4,317.9,170.4,315.3L170.4,315.3z M174.3,315.3c0,1.8-0.3,3.4-0.9,4.9c-0.6,1.5-1.5,2.8-2.6,3.9
		c-1.1,1.1-2.5,1.9-4.1,2.6c-1.6,0.6-3.4,0.9-5.4,0.9H153v15h-4v-39.3h12.6c2,0,3.8,0.3,5.4,0.9c1.6,0.6,2.9,1.4,4,2.5
		c1.1,1.1,1.9,2.4,2.5,3.8C174,312,174.3,313.5,174.3,315.3L174.3,315.3z"/>
	<path class="st1" d="M153.3,323.6h7.9c2.8,0,4.9-0.7,6.5-2.2c1.6-1.5,2.4-3.5,2.4-6.1c0-2.5-0.7-4.5-2.2-5.9
		c-1.4-1.4-3.6-2.2-6.4-2.2h-8.3V323.6L153.3,323.6z M161.2,324.1h-8.5v-17.5h8.8c2.9,0,5.2,0.8,6.7,2.3c1.5,1.5,2.3,3.7,2.3,6.3
		c0,2.7-0.9,4.9-2.5,6.5C166.4,323.3,164.1,324.1,161.2,324.1L161.2,324.1z M149.3,342.2h3.5v-15h8.5c1.9,0,3.7-0.3,5.3-0.9
		c1.6-0.6,2.9-1.4,4-2.5c1.1-1.1,2-2.3,2.6-3.8c0.6-1.5,0.9-3.1,0.9-4.8c0-1.7-0.3-3.2-0.9-4.6c-0.6-1.4-1.4-2.7-2.4-3.7
		c-1.1-1.1-2.4-1.9-3.9-2.5c-1.5-0.6-3.3-0.9-5.3-0.9h-12.3V342.2L149.3,342.2z M153.3,342.8h-4.5V303h12.8c2,0,3.9,0.3,5.5,0.9
		c1.6,0.6,3,1.5,4.1,2.6c1.1,1.1,2,2.4,2.6,3.9c0.6,1.5,0.9,3.1,0.9,4.8c0,1.8-0.3,3.5-1,5c-0.6,1.5-1.5,2.8-2.7,4
		c-1.2,1.1-2.6,2-4.2,2.6c-1.7,0.6-3.5,0.9-5.5,0.9h-7.9V342.8L153.3,342.8z"/>
	<path class="st1" d="M195.4,328.1H210l-4.5-12.1c-0.4-1.4-0.9-2.8-1.4-4.4c-0.5-1.5-0.9-3-1.4-4.3c-0.5,1.3-1,2.7-1.5,4.3
		c-0.5,1.6-1,3-1.4,4.4L195.4,328.1L195.4,328.1z M211.4,331.6h-17.3l-4,10.9H186l14.6-39.3h4.1c2.4,6.6,4.9,13.1,7.3,19.6
		c2.4,6.5,4.9,13,7.3,19.6h-4.1L211.4,331.6L211.4,331.6z"/>
	<path class="st1" d="M195.8,327.8h13.9l-4.5-12.3c-0.4-1.2-0.8-2.5-1.2-3.8c-0.4-1.3-0.8-2.5-1.1-3.6c-0.4,1.1-0.8,2.3-1.2,3.6
		c-0.5,1.6-1,3.1-1.4,4.4L195.8,327.8L195.8,327.8z M210.4,328.3H195l4.6-12.4c0.4-1.3,0.9-2.8,1.4-4.4c0.5-1.6,1-3,1.5-4.3l0.3-0.7
		l0.2,0.7c0.4,1.3,0.9,2.8,1.4,4.3c0.4,1.3,0.8,2.6,1.2,3.8l0.2,0.5L210.4,328.3L210.4,328.3z M215.5,342.2h3.5
		c-2.4-6.5-4.8-12.9-7.2-19.3c-2.4-6.4-4.8-12.9-7.2-19.5h-3.8l-14.4,38.7h3.5l4-10.9h17.7l0.1,0.2L215.5,342.2L215.5,342.2z
		 M219.8,342.8h-4.6l-0.1-0.2l-3.9-10.7h-16.9l-4,10.9h-4.6l14.8-39.8h4.5l0.1,0.2c2.4,6.6,4.9,13.1,7.3,19.6
		c2.4,6.5,4.9,13,7.3,19.6L219.8,342.8L219.8,342.8z"/>
	<path class="st1" d="M260,314.8c0-2.4-0.7-4.3-2.2-5.7c-1.5-1.4-3.7-2.1-6.6-2.1h-9.9v16h9.6c2.8,0,5.1-0.7,6.7-2.2
		C259.2,319.3,260,317.3,260,314.8L260,314.8z M264,314.8c0,2.8-0.8,5.3-2.5,7.3c-1.7,2-4,3.4-6.9,4.2l9.6,16.2h-4.4l-9.3-15.8h-9.1
		v15.8h-4v-39.3h13.9c2,0,3.8,0.3,5.4,0.9c1.6,0.6,2.9,1.4,4,2.4c1.1,1,1.9,2.2,2.5,3.6C263.7,311.6,264,313.2,264,314.8L264,314.8z
		"/>
	<path class="st1" d="M241.6,322.7h9.3c2.8,0,4.9-0.7,6.5-2.1c1.6-1.4,2.4-3.4,2.4-5.8c0-2.3-0.7-4.2-2.2-5.5c-1.4-1.3-3.6-2-6.4-2
		h-9.6V322.7L241.6,322.7z M250.9,323.3H241v-16.5h10.2c2.9,0,5.2,0.7,6.7,2.2c1.5,1.4,2.3,3.4,2.3,5.9c0,2.6-0.9,4.7-2.5,6.2
		C256.1,322.5,253.8,323.3,250.9,323.3L250.9,323.3z M259.9,342.2h3.8l-9.6-16.2l0.3-0.1c2.8-0.8,5.1-2.1,6.8-4.1
		c1.6-2,2.5-4.4,2.5-7.1c0-1.6-0.3-3.1-0.9-4.4c-0.6-1.4-1.4-2.5-2.4-3.5c-1.1-1-2.4-1.8-3.9-2.4c-1.6-0.6-3.3-0.9-5.3-0.9h-13.6
		v38.7h3.4v-15.8h9.6L259.9,342.2L259.9,342.2z M264.7,342.8h-5l-9.3-15.8h-8.7v15.8h-4.5V303h14.1c2,0,3.9,0.3,5.5,0.9
		c1.6,0.6,3,1.5,4.1,2.5c1.1,1.1,2,2.3,2.6,3.7c0.6,1.4,0.9,3,0.9,4.6c0,2.9-0.9,5.4-2.6,7.5c-1.7,2-3.9,3.4-6.7,4.2L264.7,342.8
		L264.7,342.8z"/>
	<path class="st1" d="M294.5,321.6l17.6,20.9h-4.8l-16.5-19.8v-1.9l16.1-17.5h4.7L294.5,321.6L294.5,321.6z M287.2,342.5h-4v-39.3h4
		V342.5L287.2,342.5z"/>
	<path class="st1" d="M283.5,342.2h3.5v-38.7h-3.5V342.2L283.5,342.2z M287.5,342.8h-4.6V303h4.6V342.8L287.5,342.8z M307.4,342.2
		h4.1l-17.4-20.7l0.2-0.2l16.5-17.9h-3.9L291,320.9v1.7L307.4,342.2L307.4,342.2z M312.7,342.8h-5.5l-0.1-0.1l-16.6-19.9v-2.1
		l0.1-0.1l16.2-17.6h5.4l-17.2,18.6L312.7,342.8L312.7,342.8z"/>
	<path class="st2" d="M102.8,410.8l-0.3-0.2L98.4,396l0.2-0.3h1.4l0.3,0.2l2.2,8.3c0.4,1.5,0.7,3,1.1,4.5h0c0.4-1.5,0.9-3.3,1.3-4.7
		l2.3-7.8l0.3-0.2h1.4l0.3,0.2l2.4,7.8c0.4,1.5,0.9,3.2,1.3,4.7h0c0.3-1.5,0.7-3,1-4.5l2.2-8.3l0.3-0.2h1.4l0.2,0.3l-4.1,14.7
		l-0.3,0.2h-1.5l-0.3-0.2l-2.4-7.9c-0.5-1.6-0.9-3.1-1.2-4.5h-0.1c-0.3,1.4-0.7,2.9-1.2,4.5l-2.4,7.9l-0.3,0.2H102.8L102.8,410.8z"
		/>
	<path class="st2" d="M125.5,401.2c-1.6,0-2.7,0.8-2.7,2.6v0.9h5.5v-0.9C128.2,402.1,127,401.2,125.5,401.2L125.5,401.2z
		 M129.9,405.9l-0.2,0.3h-6.9v0.9c0,1.6,1.2,2.4,2.8,2.4c1.5,0,2.5-0.6,3.2-1.2l0.3,0.1l0.6,0.8l0,0.3c-1.1,0.9-2.4,1.5-4.2,1.5
		c-2.3,0-4.5-1.3-4.5-4v-3.2c0-2.9,2.2-4.2,4.5-4.2c2.3,0,4.4,1.3,4.4,4.2V405.9L129.9,405.9z"/>
	<path class="st2" d="M137.6,411.1c-2,0-3.2-1.4-3.2-3.9v-11.2l0.3-0.2h1.2l0.2,0.2v11.3c0,1.7,0.6,2.3,1.7,2.3c0.3,0,0.6,0,1-0.1
		l0.3,0.2v1.1l-0.2,0.3C138.4,411,138,411.1,137.6,411.1L137.6,411.1z"/>
	<path class="st2" d="M145.8,411.1c-2,0-3.2-1.4-3.2-3.9v-11.2l0.3-0.2h1.2l0.2,0.2v11.3c0,1.7,0.6,2.3,1.7,2.3c0.3,0,0.6,0,1-0.1
		l0.3,0.2v1.1L147,411C146.7,411,146.2,411.1,145.8,411.1L145.8,411.1z"/>
	<path class="st2" d="M151.8,410.9c-0.7,0-1.2-0.5-1.2-1.2c0-0.7,0.5-1.2,1.2-1.2c0.7,0,1.2,0.5,1.2,1.2
		C152.9,410.5,152.4,410.9,151.8,410.9L151.8,410.9z"/>
	<path class="st2" d="M169.5,411.1c-3.1,0-5.6-1.8-5.6-5.2v-5.1c0-3.5,2.5-5.3,5.5-5.3c1.6,0,3.2,0.5,4.5,1.5l0,0.3l-0.7,1l-0.4,0
		c-1-0.8-2.3-1.1-3.5-1.1c-2.4,0-3.7,1.4-3.7,3.6v5.1c0,2.2,1.3,3.6,3.7,3.6c1.4,0,2.8-0.4,3.9-1.3l0.3,0.1l0.7,1l-0.1,0.4
		C172.9,410.6,171.1,411.1,169.5,411.1L169.5,411.1z"/>
	<path class="st2" d="M182.8,409.5c1.9,0,2.9-1,2.9-2.6v-3c0-1.6-1-2.6-2.9-2.6c-1.9,0-2.9,1-2.9,2.6v3
		C179.9,408.5,180.9,409.5,182.8,409.5L182.8,409.5z M182.8,411.1c-2.9,0-4.7-1.7-4.7-4.2v-3c0-2.5,1.8-4.2,4.7-4.2
		c2.9,0,4.7,1.7,4.7,4.2v3C187.5,409.4,185.7,411.1,182.8,411.1L182.8,411.1z"/>
	<path class="st2" d="M192.3,410.8l-0.2-0.2v-9.8l0.2-0.3c1.2-0.5,2.6-0.8,4.1-0.8c2.8,0,4.8,1.3,4.8,4.6v6.4l-0.3,0.2h-1.3
		l-0.2-0.2v-6.3c0-2.2-1.1-3.1-3-3.1c-0.9,0-1.8,0.2-2.5,0.4v9l-0.3,0.2H192.3L192.3,410.8z"/>
	<path class="st2" d="M206.2,410.8l-0.2-0.2v-9.8l0.2-0.3c1.2-0.5,2.6-0.8,4.1-0.8c2.8,0,4.8,1.3,4.8,4.6v6.4l-0.3,0.2h-1.3
		l-0.2-0.2v-6.3c0-2.2-1.1-3.1-3-3.1c-0.9,0-1.8,0.2-2.5,0.4v9l-0.3,0.2H206.2L206.2,410.8z"/>
	<path class="st2" d="M224.1,401.2c-1.6,0-2.7,0.8-2.7,2.6v0.9h5.5v-0.9C226.8,402.1,225.6,401.2,224.1,401.2L224.1,401.2z
		 M228.5,405.9l-0.2,0.3h-6.9v0.9c0,1.6,1.2,2.4,2.8,2.4c1.5,0,2.5-0.6,3.2-1.2l0.3,0.1l0.6,0.8l0,0.3c-1.1,0.9-2.4,1.5-4.2,1.5
		c-2.3,0-4.5-1.3-4.5-4v-3.2c0-2.9,2.2-4.2,4.5-4.2c2.3,0,4.4,1.3,4.4,4.2V405.9L228.5,405.9z"/>
	<path class="st2" d="M237.2,411.1c-2.8,0-4.5-1.7-4.5-4.1v-3.2c0-2.4,1.7-4.1,4.5-4.1c1.3,0,2.4,0.4,3.5,1.1l0.1,0.4l-0.6,0.9
		l-0.3,0.1c-0.8-0.5-1.7-0.8-2.6-0.8c-1.8,0-2.8,1-2.8,2.5v3.2c0,1.5,1,2.5,2.8,2.5c1,0,1.9-0.3,2.8-0.9l0.3,0l0.6,0.9l0,0.3
		C239.9,410.6,238.7,411.1,237.2,411.1L237.2,411.1z"/>
	<path class="st2" d="M248.8,409.5c0.2,0,0.6,0,1,0l0.3,0.2v1.1l-0.2,0.3c-0.4,0-0.9,0-1.1,0c-2.1,0-3.7-1.1-3.7-3.7v-9.9l0.3-0.3
		h1.1l0.2,0.2l0.1,2.6h2.8l0.2,0.2v1.1l-0.2,0.3h-2.8v5.7C246.8,408.6,247.5,409.5,248.8,409.5L248.8,409.5z"/>
	<path class="st2" d="M258.1,401.2c-1.6,0-2.7,0.8-2.7,2.6v0.9h5.5v-0.9C260.8,402.1,259.6,401.2,258.1,401.2L258.1,401.2z
		 M262.5,405.9l-0.2,0.3h-6.9v0.9c0,1.6,1.2,2.4,2.8,2.4c1.5,0,2.5-0.6,3.2-1.2l0.3,0.1l0.6,0.8l0,0.3c-1.1,0.9-2.4,1.5-4.2,1.5
		c-2.3,0-4.5-1.3-4.5-4v-3.2c0-2.9,2.2-4.2,4.5-4.2c2.3,0,4.4,1.3,4.4,4.2V405.9L262.5,405.9z"/>
	<path class="st2" d="M271.4,409.5c0.9,0,1.8-0.1,2.5-0.4V402c-0.7-0.5-1.5-0.8-2.5-0.8c-1.9,0-3,0.9-3,2.9v2.4
		C268.4,408.7,269.5,409.5,271.4,409.5L271.4,409.5z M273.9,395.9l0.3-0.2h1.3l0.2,0.2v14.1l-0.2,0.3c-1.2,0.5-2.7,0.7-4.1,0.7
		c-2.8,0-4.7-1.4-4.7-4.6v-2.4c0-2.8,1.9-4.5,4.6-4.5c1,0,1.9,0.3,2.7,0.7V395.9L273.9,395.9z"/>
	<path class="st2" d="M281.5,410.9c-0.7,0-1.2-0.5-1.2-1.2c0-0.7,0.5-1.2,1.2-1.2c0.7,0,1.2,0.5,1.2,1.2
		C282.6,410.5,282.1,410.9,281.5,410.9L281.5,410.9z"/>
	<polygon class="st2" points="294.4,410.8 294.1,410.6 294.1,395.9 294.4,395.7 295.7,395.7 295.9,395.9 295.9,409.2 302.6,409.2 
		302.8,409.4 302.8,410.6 302.6,410.8 294.4,410.8 	"/>
	<path class="st2" d="M306.9,410.8l-0.3-0.2v-10.5l0.3-0.3h1.2l0.2,0.3v10.5l-0.2,0.2H306.9L306.9,410.8z M307.5,397.8
		c-0.6,0-1.1-0.4-1.1-1c0-0.6,0.5-1,1.1-1c0.6,0,1,0.4,1,1C308.6,397.4,308.1,397.8,307.5,397.8L307.5,397.8z"/>
	<path class="st2" d="M316.5,410.8l-0.3-0.2l-3.9-10.5l0.2-0.3h1.4l0.3,0.2l2.1,6c0.3,1,0.7,1.9,1,2.9h0c0.3-1,0.7-1.9,1-2.9l2.1-6
		l0.3-0.2h1.4l0.2,0.3l-3.9,10.5l-0.3,0.2H316.5L316.5,410.8z"/>
	<path class="st2" d="M326.4,410.8l-0.3-0.2v-10.5l0.3-0.3h1.3l0.2,0.3v10.5l-0.2,0.2H326.4L326.4,410.8z M327,397.8
		c-0.6,0-1.1-0.4-1.1-1c0-0.6,0.5-1,1.1-1c0.6,0,1,0.4,1,1C328.1,397.4,327.6,397.8,327,397.8L327,397.8z"/>
	<path class="st2" d="M333.1,410.8l-0.2-0.2v-9.8l0.2-0.3c1.2-0.5,2.6-0.8,4.1-0.8c2.8,0,4.8,1.3,4.8,4.6v6.4l-0.3,0.2h-1.3
		l-0.2-0.2v-6.3c0-2.2-1.1-3.1-3-3.1c-0.9,0-1.8,0.2-2.5,0.4v9l-0.3,0.2H333.1L333.1,410.8z"/>
	<path class="st2" d="M351.1,408.9c1,0,2-0.2,2.6-0.6v-6.7c-0.6-0.2-1.7-0.4-2.5-0.4c-1.8,0-3,0.7-3,2.8v2.1
		C348.2,408.2,349.5,408.9,351.1,408.9L351.1,408.9z M351,415.1c-1.7,0-3-0.5-4.1-1.5l0-0.3l0.6-0.9l0.3,0c0.9,0.7,1.9,1.2,3.2,1.2
		c1.9,0,2.8-1,2.7-3.1v-0.5c-0.8,0.4-1.8,0.6-2.7,0.6c-2.5,0-4.6-1.4-4.6-4.3v-2.1c0-3.2,2.1-4.4,4.7-4.4c1.5,0,3,0.3,4.1,0.8
		l0.2,0.3v9.8C355.5,413.3,354.2,415.1,351,415.1L351,415.1z"/>
	<path class="st2" d="M361.3,410.9c-0.7,0-1.2-0.5-1.2-1.2c0-0.7,0.5-1.2,1.2-1.2c0.7,0,1.2,0.5,1.2,1.2
		C362.4,410.5,362,410.9,361.3,410.9L361.3,410.9z"/>
	<path class="st2" d="M61.5,220.5l-5.4-16h-0.2l-5.5,16.2l-10.2,27.1H72L61.5,220.5L61.5,220.5z M38.4,252.3l-8.2,22.4h-5.4
		l28.8-75.7h5.1l28.8,75.7H82l-8.2-22.4H38.4L38.4,252.3z"/>
	<path class="st2" d="M41.3,247h29.5l-10-26.3L56,206.7L51.2,221L41.3,247L41.3,247z M73.1,248.6H39l10.6-28.2l5.7-16.7h1.4
		l5.6,16.5L73.1,248.6L73.1,248.6z M82.5,273.8h3.7l-28.2-74.1h-4L26,273.8h3.7l8.2-22.4h36.5L82.5,273.8L82.5,273.8z M88.5,275.4
		h-7.1l-8.2-22.4H39l-8.2,22.4h-7.1L53,198.1h6.2L88.5,275.4L88.5,275.4z"/>
	<path class="st2" d="M167.8,220.7c0-5.3-1.6-9.5-4.8-12.5c-3.2-3-7.9-4.5-14.1-4.5h-21.1v34.5h20.3c6.1,0,11-1.5,14.4-4.6
		C166.1,230.4,167.8,226.2,167.8,220.7L167.8,220.7z M173.1,220.7c0,6.1-1.7,11-5.2,14.7c-3.5,3.7-8.1,6-14,7l19.7,32.2h-5.8
		l-19.3-31.8h-0.2h-20.3v31.8h-5.3v-75.7H149c3.8,0,7.2,0.5,10.2,1.6c3,1,5.5,2.5,7.6,4.4c2.1,1.9,3.6,4.2,4.7,6.9
		C172.6,214.5,173.1,217.5,173.1,220.7L173.1,220.7z"/>
	<path class="st2" d="M128.6,237.3h19.5c5.9,0,10.6-1.5,13.9-4.4c3.3-2.9,5-7,5-12.2c0-5.1-1.5-9.1-4.5-12c-3-2.9-7.6-4.3-13.6-4.3
		h-20.3V237.3L128.6,237.3z M148.2,238.9H127v-36.1H149c6.4,0,11.3,1.6,14.6,4.8c3.3,3.2,5,7.6,5,13.1c0,5.7-1.8,10.2-5.5,13.4
		C159.5,237.3,154.5,238.9,148.2,238.9L148.2,238.9z M168.2,273.8h4l-19.5-32l1.2-0.2c5.6-0.9,10.2-3.2,13.5-6.8
		c3.3-3.5,5-8.3,5-14.1c0-3.1-0.5-6-1.6-8.6c-1-2.6-2.6-4.8-4.5-6.6c-2-1.8-4.4-3.3-7.3-4.3c-2.9-1-6.3-1.5-10-1.5h-25.6v74.1h3.7
		V242h21.8L168.2,273.8L168.2,273.8z M175,275.4h-7.7l-19.3-31.8h-19.3v31.8h-6.9v-77.3H149c3.9,0,7.4,0.5,10.5,1.6
		c3.1,1.1,5.7,2.6,7.9,4.6c2.1,2,3.8,4.4,4.9,7.2c1.1,2.8,1.7,5.9,1.7,9.2c0,6.2-1.8,11.4-5.4,15.2c-3.4,3.6-7.8,5.9-13.3,7
		L175,275.4L175,275.4z"/>
	<path class="st2" d="M260.6,220.7c0-5.3-1.6-9.5-4.8-12.5c-3.2-3-7.9-4.5-14.1-4.5h-21.1v34.5h20.3c6.1,0,11-1.5,14.4-4.6
		C258.8,230.4,260.6,226.2,260.6,220.7L260.6,220.7z M265.9,220.7c0,6.1-1.7,11-5.2,14.7c-3.5,3.7-8.1,6-14,7l19.7,32.2h-5.8
		l-19.3-31.8h-0.2h-20.3v31.8h-5.3v-75.7h26.4c3.8,0,7.2,0.5,10.2,1.6c3,1,5.5,2.5,7.6,4.4c2.1,1.9,3.6,4.2,4.7,6.9
		C265.3,214.5,265.9,217.5,265.9,220.7L265.9,220.7z"/>
	<path class="st2" d="M221.4,237.3h19.5c5.9,0,10.6-1.5,13.9-4.4c3.3-2.9,5-7,5-12.2c0-5.1-1.5-9.1-4.5-12c-3-2.9-7.6-4.3-13.5-4.3
		h-20.3V237.3L221.4,237.3z M240.9,238.9h-21.1v-36.1h21.9c6.4,0,11.3,1.6,14.6,4.8c3.3,3.2,5,7.6,5,13.1c0,5.7-1.8,10.2-5.5,13.4
		C252.3,237.3,247.2,238.9,240.9,238.9L240.9,238.9z M260.9,273.8h4l-19.5-32l1.2-0.2c5.6-0.9,10.2-3.2,13.5-6.8
		c3.3-3.5,5-8.3,5-14.1c0-3.1-0.5-6-1.6-8.6c-1-2.6-2.6-4.8-4.5-6.6c-2-1.8-4.4-3.3-7.3-4.3c-2.9-1-6.3-1.5-10-1.5h-25.6v74.1h3.7
		V242h21.8L260.9,273.8L260.9,273.8z M267.7,275.4H260l-19.3-31.8h-19.3v31.8h-6.9v-77.3h27.2c3.9,0,7.4,0.5,10.5,1.6
		c3.1,1.1,5.7,2.6,7.9,4.6c2.1,2,3.8,4.4,4.9,7.2c1.1,2.8,1.7,5.9,1.7,9.2c0,6.2-1.8,11.4-5.4,15.2c-3.4,3.6-7.8,5.9-13.3,7
		L267.7,275.4L267.7,275.4z"/>
	<path class="st2" d="M335.4,220.5l-5.4-16h-0.2l-5.5,16.2l-10.2,27.1h31.8L335.4,220.5L335.4,220.5z M312.3,252.3l-8.2,22.4h-5.4
		l28.8-75.7h5.1l28.8,75.7h-5.4l-8.2-22.4H312.3L312.3,252.3z"/>
	<path class="st2" d="M315.2,247h29.5l-10-26.3l-4.8-14.1l-4.9,14.3L315.2,247L315.2,247z M347,248.6h-34.1l10.6-28.2l5.7-16.7h1.4
		l5.6,16.5L347,248.6L347,248.6z M356.4,273.8h3.7L332,199.7h-4l-28.2,74.1h3.7l8.2-22.4h36.5L356.4,273.8L356.4,273.8z
		 M362.4,275.4h-7.1l-8.2-22.4h-34.3l-8.2,22.4h-7.1l29.4-77.3h6.2L362.4,275.4L362.4,275.4z"/>
	<path class="st2" d="M411.2,275.5c-5.3,0-9.6-0.5-12.9-1.4c-3.3-0.9-6-2-8.3-3.3l1.6-4.4c2.5,1.3,5.4,2.3,8.4,3.2
		c3.1,0.9,6.8,1.3,11.1,1.3c2.8,0,5.4-0.3,7.8-1c2.4-0.6,4.4-1.6,6.1-2.9c1.7-1.3,3-3,4-5c1-2,1.5-4.5,1.5-7.3
		c0-2.9-0.5-5.3-1.6-7.1c-1-1.8-2.5-3.3-4.3-4.4c-1.8-1.2-3.9-2.1-6.2-2.9c-2.3-0.7-4.7-1.5-7.2-2.4c-2.5-0.8-5.1-1.8-7.6-2.9
		c-2.5-1.1-4.8-2.4-6.9-4c-2-1.6-3.7-3.6-4.9-6c-1.3-2.4-1.9-5.2-1.9-8.5c0-2.5,0.4-5,1.2-7.2c0.8-2.3,2.2-4.3,4-6
		c1.8-1.7,4.2-3,7.1-4c2.9-1,6.3-1.5,10.4-1.5c3.9,0,7.4,0.4,10.6,1.3c3.2,0.9,5.9,1.9,8,3l-1.5,3.9c-2.3-1.1-5-2-8.1-2.7
		c-3.1-0.7-6.1-1-9-1c-6.3,0-10.8,1.3-13.6,3.9c-2.8,2.6-4.2,6.1-4.2,10.4c0,2.5,0.4,4.6,1.3,6.2c0.9,1.7,2.1,3.1,3.7,4.4
		c1.6,1.2,3.4,2.3,5.6,3.3c2.2,0.9,4.6,1.9,7.3,2.8c2.9,1,5.7,2,8.5,3c2.7,1,5.1,2.3,7.2,3.9c2.1,1.5,3.8,3.4,5.1,5.7
		c1.3,2.2,1.9,5.1,1.9,8.5c0,3.4-0.6,6.3-1.7,8.9c-1.2,2.6-2.8,4.8-4.9,6.5c-2.1,1.8-4.7,3.1-7.7,4
		C418.2,275.1,414.8,275.5,411.2,275.5L411.2,275.5z"/>
	<path class="st2" d="M391,270.4c2.1,1.1,4.6,2.1,7.5,2.9c3.2,0.9,7.4,1.4,12.6,1.4c3.6,0,6.9-0.4,9.8-1.3c2.9-0.9,5.4-2.2,7.4-3.8
		c2-1.7,3.6-3.8,4.7-6.2c1.1-2.5,1.7-5.4,1.7-8.6c0-3.3-0.6-6-1.8-8.1c-1.2-2.1-2.8-4-4.8-5.4c-2-1.5-4.4-2.8-7.1-3.8
		c-2.7-1-5.6-2.1-8.4-3c-2.7-0.9-5.2-1.8-7.4-2.8c-2.2-1-4.2-2.1-5.8-3.4c-1.7-1.3-3-2.9-3.9-4.6c-0.9-1.8-1.4-4-1.4-6.6
		c0-4.6,1.5-8.3,4.4-11c2.9-2.8,7.7-4.2,14.1-4.2c3,0,6,0.3,9.2,1c2.8,0.6,5.3,1.4,7.5,2.4l0.9-2.5c-2-1-4.4-1.9-7.3-2.7
		c-3.1-0.9-6.6-1.3-10.4-1.3c-3.9,0-7.3,0.5-10.1,1.4c-2.8,0.9-5.1,2.2-6.8,3.8c-1.7,1.6-3,3.5-3.8,5.6c-0.8,2.2-1.2,4.5-1.2,7
		c0,3.1,0.6,5.9,1.8,8.1c1.2,2.3,2.8,4.2,4.7,5.7c2,1.6,4.2,2.9,6.7,3.9c2.5,1.1,5,2,7.6,2.8c2.5,0.8,4.9,1.6,7.2,2.4
		c2.4,0.8,4.5,1.8,6.4,3c1.9,1.2,3.4,2.8,4.5,4.7c1.1,1.9,1.7,4.4,1.7,7.5c0,2.9-0.5,5.5-1.5,7.6c-1,2.1-2.4,3.9-4.2,5.3
		c-1.8,1.4-3.9,2.4-6.4,3.1c-2.5,0.7-5.1,1-8,1c-4.4,0-8.2-0.4-11.3-1.3c-2.8-0.8-5.4-1.7-7.8-2.9L391,270.4L391,270.4z
		 M411.2,276.3c-5.4,0-9.8-0.5-13.1-1.4c-3.3-0.9-6.1-2.1-8.4-3.4l-0.6-0.3l2.1-5.9l0.8,0.4c2.5,1.2,5.3,2.3,8.3,3.1
		c3,0.8,6.7,1.3,10.9,1.3c2.7,0,5.2-0.3,7.5-0.9c2.3-0.6,4.2-1.5,5.8-2.8c1.6-1.2,2.8-2.8,3.8-4.7c0.9-1.9,1.4-4.2,1.4-7
		c0-2.8-0.5-5-1.5-6.7c-1-1.7-2.3-3.1-4-4.2c-1.7-1.1-3.7-2-6-2.8c-2.3-0.7-4.7-1.5-7.2-2.4c-2.6-0.8-5.2-1.8-7.7-2.9
		c-2.6-1.1-5-2.5-7-4.2c-2.1-1.7-3.8-3.8-5.1-6.2c-1.3-2.5-2-5.4-2-8.9c0-2.6,0.4-5.2,1.3-7.5c0.9-2.4,2.3-4.5,4.2-6.3
		c1.9-1.8,4.4-3.1,7.4-4.2c3-1,6.5-1.5,10.6-1.5c4,0,7.6,0.5,10.8,1.4c3.2,0.9,6,1.9,8.2,3.1l0.6,0.3l-2,5.4l-0.8-0.4
		c-2.3-1.1-4.9-2-7.9-2.6c-3-0.7-6-1-8.8-1c-6.1,0-10.4,1.3-13,3.7c-2.6,2.5-3.9,5.7-3.9,9.9c0,2.3,0.4,4.3,1.2,5.9
		c0.8,1.6,2,3,3.4,4.1c1.5,1.2,3.3,2.3,5.4,3.2c2.1,0.9,4.6,1.8,7.2,2.7c2.9,1,5.8,2,8.5,3c2.8,1.1,5.3,2.4,7.4,4
		c2.2,1.6,4,3.6,5.3,5.9c1.3,2.4,2,5.4,2,8.9c0,3.5-0.6,6.6-1.8,9.3c-1.2,2.7-2.9,5-5.2,6.8c-2.2,1.8-4.9,3.2-8,4.1
		C418.3,275.9,414.9,276.3,411.2,276.3L411.2,276.3z"/>
	<g>
		<defs>
			<path id="SVGID_1_" d="M142.1,153.4c-3.1-1.1-6.1-2.5-8.8-4.3c-2.7-1.8-5.3-3.9-7.5-6.3l0.2-0.2c9.8,8.4,22.9,12,35.4,11
				c5.5-0.5,11-1.6,16.2-3.6c-0.3-0.1-0.7-0.1-1-0.2c-3.2-0.8-6.4-1.7-9.5-3l-2.3-1l-2.2-1.1c-1.5-0.7-2.9-1.6-4.3-2.4
				c-2.9-1.7-5.6-4-7.5-7c-0.9-1.5-1.6-3.4-1.3-5.5c0.3-2,1.7-3.8,3.3-4.7c1.7-1,3.4-1.3,5.1-1.5c1.7-0.2,3.3-0.2,4.9-0.2
				c2.1,0,4.1,0,6.2,0.1c-3.6-5.4-5.9-11.5-6.6-18.4c-1.3-11.6,1.7-23.7,5.8-33.8h21.7c2.5,0,4.9,0,7.4,0l-4.9,0h4.9
				c4,10.3,6.9,22.4,5.4,34.1c-1.1,9.1-4.7,16.8-10.8,23.1c2.4,2.3,3,5.9,2.4,9c-0.7,3.4-2.8,6.2-5.3,8.4c-0.9,0.7-1.7,1.4-2.7,2.1
				c6.4,0.4,12.9,0,19.3-0.6c6.4-0.7,12.8-1.6,19.2-2.4c1.4-0.2,2.9-0.4,4.3-0.6l0.1-8.7v-0.1c-11.2-7.4-17.6-17.6-19-30.4
				c-1.3-11.6,1.7-23.7,5.8-33.8h21.7c2.5,0,4.9,0,7.4,0l-4.9,0h4.9c4,10.3,6.9,22.4,5.4,34.1c-1.6,12.9-8.1,22.9-19.5,30.2v0.1
				l-0.1,8.5c4.4-0.5,8.9-1,13.3-1.4c10.7-0.9,21.5-1.1,32.2-0.3l0-6.8v-0.1c-11.2-7.4-17.6-17.6-19-30.4
				C256,93.5,259,81.5,263,71.3h21.7c2.5,0,4.9,0,7.4,0l-4.9,0h4.9c4,10.3,6.9,22.4,5.4,34.1c-1.6,12.9-8.1,22.9-19.5,30.2v0.1
				l0,6.9c1.7,0.1,3.3,0.3,5,0.5c12.9,1.3,25.6,4.2,37.9,8l-0.1,0.3c-12.5-3.2-25.2-5.5-38-6.5c-1.6-0.1-3.2-0.2-4.8-0.3l0,4.3
				c0,0.6-0.4,1.3-0.9,1.3c-0.4,0-0.9-0.5-0.8-1.3l0-4.4c-10.6-0.5-21.3-0.1-31.9,1c-4.5,0.5-9,1-13.5,1.7l0,1.7
				c0,0.6-0.4,1.3-0.9,1.3c-0.4,0-0.9-0.5-0.9-1.3v-1.5c-7.7,1.1-15.3,2.3-23.1,3.2c-6.5,0.7-13,1.1-19.6,0.7
				c-1.6-0.1-3.1-0.2-4.7-0.4c-0.4,0.2-0.7,0.4-1.1,0.6c-5.9,2.9-12.5,4.6-19.1,4.9c-0.9,0-1.8,0.1-2.7,0.1
				C153.1,156.3,147.4,155.4,142.1,153.4 M183.1,135.5L183.1,135.5l-0.1,12.1c1.7-0.9,3.4-1.9,4.9-3.1c2.4-1.9,4.6-4.3,5.3-7.3
				c0.7-2.8,0.1-6.1-1.9-8.2C188.9,131.4,186.1,133.6,183.1,135.5 M162.8,125.5c-3.1,0.3-6.5,0.3-8.8,1.8c-1.1,0.7-1.8,1.8-2,3
				c-0.2,1.2,0.3,2.5,1,3.7c1.6,2.4,4,4.4,6.7,5.9c1.4,0.8,2.7,1.6,4.1,2.3l2.1,1l2.2,0.9c4.2,1.7,8.6,2.8,13.1,3.4l0.1-11.8v-0.1
				c-4.5-3-8.2-6.4-11.2-10.3c-0.2,0-0.4,0-0.5,0C167.4,125.2,165.1,125.3,162.8,125.5 M263.2,71l12.3-0.1l14.7-0.1
				c0.6,0,1.2,0,1.7,0c0,0.1,0.1,0.1,0.1,0.2c-9.7,0.1-19.3,0.2-29,0.2C263.1,71.2,263.1,71.1,263.2,71 M216,71l12.4-0.1l14.7-0.1
				c0.6,0,1.2,0,1.8,0c0,0.1,0,0.1,0.1,0.2c-9.7,0.1-19.3,0.2-29,0.2C215.9,71.2,216,71.1,216,71 M168.2,71l12.4-0.1l14.7-0.1
				c0.6,0,1.2,0,1.8,0c0,0.1,0,0.1,0.1,0.2c-9.7,0.1-19.3,0.2-29,0.2C168.1,71.2,168.2,71.1,168.2,71 M263.5,70.2l24.7-0.1
				c-4,0-8.1,0.1-12.1,0.1c5.2,0,10.5,0,15.7-0.1c0,0,0,0,0,0l-22.4,0.1c-2,0-3.9,0-5.9,0.1C263.4,70.3,263.4,70.3,263.5,70.2
				 M216.3,70.2l24.7-0.1c-4,0-8.1,0.1-12.1,0.1c5.2,0,10.5,0,15.7-0.1c0,0,0,0,0,0l-22.4,0.1c-2,0-3.9,0-5.9,0.1
				C216.3,70.3,216.3,70.3,216.3,70.2 M168.5,70.2l24.7-0.1c-4,0-8.1,0.1-12.1,0.1c5.2,0,10.5,0,15.7-0.1c0,0,0,0,0,0l-22.4,0.1
				c-2,0-3.9,0-5.9,0.1C168.5,70.3,168.5,70.3,168.5,70.2 M288.1,70.2L288.1,70.2 M289.9,70.2c-0.6,0-1.2,0-1.8,0L289.9,70.2
				 M241,70.2L241,70.2 M242.7,70.2c-0.6,0-1.2,0-1.8,0L242.7,70.2 M193.2,70.2L193.2,70.2 M195,70.2c-0.6,0-1.2,0-1.8,0L195,70.2
				 M291.7,70.1l-1.8,0C290.5,70.2,291.1,70.1,291.7,70.1 M244.5,70.1l-1.8,0C243.3,70.2,243.9,70.1,244.5,70.1 M196.7,70.1l-1.8,0
				C195.5,70.2,196.1,70.1,196.7,70.1 M263.7,69.7c9.3,0,18.5,0,27.8,0c0,0,0,0.1,0,0.1l-28,0.1C263.6,69.9,263.7,69.8,263.7,69.7
				 M216.5,69.7c9.3,0,18.6,0,27.8,0c0,0,0,0.1,0,0.1l-28,0.1C216.4,69.9,216.5,69.8,216.5,69.7 M168.7,69.7c9.3,0,18.6,0,27.8,0
				c0,0,0,0.1,0,0.1l-28,0.1C168.6,69.9,168.7,69.8,168.7,69.7 M264.1,68.8c0.2,0,0.3,0,0.5,0c0.1,0,0.2,0,0.2,0c1.8,0,3.7,0,5.5,0
				c1.8-0.1,3.5-0.2,5.2-0.3l-11.4,0.1c0-0.1,0-0.1,0.1-0.2c2,0,4,0,6,0c-2,0-4,0-6-0.1c0-0.1,0.1-0.2,0.1-0.2l20.9-0.1
				c1.6,0,3.1,0,4.7,0h0.8c0.2,0.4,0.3,0.8,0.5,1.2l-24.6,0.2c-1,0-2,0-3,0C263.9,69.2,264,69,264.1,68.8 M282.9,69
				c0.7,0,1.4,0,2.1-0.1h-0.4C284.1,69,283.5,69,282.9,69 M216.9,68.8c0.2,0,0.3,0,0.5,0c0.1,0,0.2,0,0.2,0c1.8,0,3.7,0,5.5,0
				c1.7-0.1,3.5-0.2,5.2-0.3L217,68.6c0-0.1,0-0.1,0.1-0.2c2,0,4,0,6,0c-2,0-4,0-6-0.1c0-0.1,0.1-0.2,0.1-0.2l20.9-0.1
				c1.6,0,3.1,0,4.7,0h0.8c0.2,0.4,0.3,0.8,0.5,1.2l-24.6,0.2c-1,0-2,0-3,0C216.7,69.2,216.8,69,216.9,68.8 M235.8,69
				c0.7,0,1.4,0,2.1-0.1h-0.3C236.9,69,236.4,69,235.8,69 M169.1,68.8c0.2,0,0.3,0,0.5,0c0.1,0,0.2,0,0.2,0c1.8,0,3.7,0,5.5,0
				c1.8-0.1,3.5-0.2,5.2-0.3l-11.4,0.1c0-0.1,0-0.1,0.1-0.2c2,0,4,0,6,0c-2,0-4,0-6-0.1c0-0.1,0.1-0.2,0.1-0.2l20.9-0.1
				c1.6,0,3.1,0,4.7,0h0.8c0.2,0.4,0.3,0.8,0.5,1.2l-24.6,0.2c-1,0-2,0-3,0C168.9,69.2,169,69,169.1,68.8 M188,69
				c0.7,0,1.4,0,2.1-0.1h-0.3C189.2,69,188.6,69,188,69 M264.5,67.8l12-0.1c-4,0.1-8.1,0.2-12.1,0.2
				C264.5,67.9,264.5,67.9,264.5,67.8 M217.3,67.8l12-0.1c-4,0.1-8.1,0.2-12.1,0.2C217.3,67.9,217.3,67.9,217.3,67.8 M169.5,67.8
				l12-0.1c-4,0.1-8.1,0.2-12.1,0.2C169.5,67.9,169.5,67.9,169.5,67.8 M290.7,67.6C290.7,67.7,290.7,67.7,290.7,67.6l-14.2,0.1
				C281.2,67.7,285.9,67.6,290.7,67.6 M243.5,67.6C243.5,67.7,243.5,67.7,243.5,67.6l-14.2,0.1C234,67.7,238.8,67.6,243.5,67.6
				 M195.7,67.6C195.7,67.7,195.7,67.7,195.7,67.6l-14.2,0.1C186.3,67.7,191,67.6,195.7,67.6 M264.7,67.4c8.6,0,17.2-0.1,25.9-0.1
				c0,0.1,0.1,0.2,0.1,0.2c-8.7,0.1-17.4,0.1-26.1,0.1C264.6,67.6,264.6,67.5,264.7,67.4 M217.5,67.4c8.6,0,17.2-0.1,25.9-0.1
				c0,0.1,0.1,0.2,0.1,0.2c-8.7,0.1-17.4,0.1-26.1,0.1C217.4,67.6,217.4,67.5,217.5,67.4 M169.7,67.4c8.6,0,17.2-0.1,25.9-0.1
				c0,0.1,0.1,0.2,0.1,0.2c-8.7,0.1-17.4,0.1-26.1,0.1C169.6,67.6,169.7,67.5,169.7,67.4 M264.8,67.2c8.5,0,17.1-0.1,25.6-0.1
				c0,0,0,0.1,0,0.1l-25.7,0.2C264.7,67.3,264.7,67.2,264.8,67.2 M217.6,67.2c8.5,0,17.1-0.1,25.6-0.1c0,0,0,0.1,0,0.1l-25.7,0.2
				C217.6,67.3,217.6,67.2,217.6,67.2 M169.8,67.2c8.5,0,17.1-0.1,25.6-0.1c0,0,0,0.1,0,0.1l-25.7,0.2
				C169.8,67.3,169.8,67.2,169.8,67.2 M290.3,66.9L290.3,66.9 M287.1,66.9c-2.6,0-5.2,0-7.8-0.1c-0.2,0-0.4,0-0.6,0l-13.9,0.1
				c0.1-0.2,0.2-0.3,0.2-0.5c0,0,0.1,0,0.1,0c8.3-0.1,16.6-0.1,24.9-0.1c0.1,0.2,0.2,0.4,0.2,0.6C289.3,66.9,288.2,66.9,287.1,66.9
				 M243.2,66.9L243.2,66.9 M240,66.9c-2.6,0-5.2,0-7.8-0.1c-0.2,0-0.4,0-0.6,0l-13.9,0.1c0.1-0.2,0.1-0.3,0.2-0.5c0,0,0.1,0,0.1,0
				c8.3-0.1,16.6-0.1,24.9-0.1c0.1,0.2,0.2,0.4,0.2,0.6C242.1,66.9,241,66.9,240,66.9 M195.4,66.9L195.4,66.9 M192.2,66.9
				c-2.6,0-5.2,0-7.8-0.1c-0.2,0-0.4,0-0.6,0l-13.9,0.1c0.1-0.2,0.1-0.3,0.2-0.5c0,0,0.1,0,0.1,0c8.3-0.1,16.6-0.1,24.9-0.1
				c0.1,0.2,0.2,0.4,0.2,0.6C194.3,66.9,193.2,66.9,192.2,66.9 M265.9,64.8l23.5-0.1c0,0,0,0.1,0,0.1c-3.1,0-6.3,0.1-9.4,0.1
				c3.1,0,6.3,0,9.4,0c0.1,0.2,0.2,0.5,0.3,0.7L270,65.6c6.6,0,13.1,0,19.7,0c0.1,0.2,0.2,0.4,0.3,0.6l-24.9,0.2
				C265.4,65.8,265.6,65.3,265.9,64.8 M218.7,64.8l23.5-0.1c0,0,0,0.1,0,0.1c-3.1,0-6.3,0.1-9.4,0.1c3.1,0,6.3,0,9.4,0
				c0.1,0.2,0.2,0.5,0.3,0.7l-19.7,0.1c6.6,0,13.2,0,19.7,0c0.1,0.2,0.2,0.4,0.3,0.6L218,66.4C218.2,65.8,218.4,65.3,218.7,64.8
				 M170.9,64.8l23.5-0.1c0,0,0,0.1,0,0.1c-3.1,0-6.3,0.1-9.4,0.1c3.1,0,6.3,0,9.4,0c0.1,0.2,0.2,0.5,0.3,0.7L175,65.6
				c6.6,0,13.2,0,19.7,0c0.1,0.2,0.2,0.4,0.3,0.6l-24.9,0.2C170.4,65.8,170.7,65.3,170.9,64.8 M266.1,64.3c0.5,0,1,0,1.5,0
				c7.2-0.1,14.3-0.1,21.5-0.1c0,0.1,0.1,0.2,0.1,0.3l-23.3,0.2C266,64.5,266,64.4,266.1,64.3 M218.9,64.3c0.5,0,1,0,1.5,0
				c7.2-0.1,14.3-0.1,21.5-0.1c0,0.1,0.1,0.2,0.1,0.3l-23.3,0.2C218.8,64.5,218.9,64.4,218.9,64.3 M171.1,64.3c0.5,0,1,0,1.5,0
				c7.2-0.1,14.3-0.1,21.5-0.1c0,0.1,0.1,0.2,0.1,0.3L171,64.6C171,64.5,171.1,64.4,171.1,64.3 M266.2,64c7.6,0,15.2-0.1,22.7-0.1
				c0,0.1,0.1,0.2,0.1,0.2l-23,0.2C266.2,64.2,266.2,64.1,266.2,64 M219.1,64c7.6,0,15.2-0.1,22.8-0.1c0,0.1,0.1,0.2,0.1,0.2
				l-23,0.2C219,64.2,219,64.1,219.1,64 M171.3,64c7.6,0,15.2-0.1,22.8-0.1c0,0.1,0.1,0.2,0.1,0.2l-23,0.2
				C171.2,64.2,171.2,64.1,171.3,64 M288.9,63.8C288.9,63.8,288.9,63.8,288.9,63.8l-22.7,0.2C273.8,63.9,281.4,63.9,288.9,63.8
				 M241.8,63.8L241.8,63.8l-22.7,0.2C226.6,63.9,234.2,63.9,241.8,63.8 M194,63.8C194,63.8,194,63.8,194,63.8l-22.7,0.2
				C178.9,63.9,186.4,63.9,194,63.8 M266.6,63.2l22-0.1c0,0,0,0.1,0.1,0.1c-5.3,0.1-10.6,0.1-15.9,0.2c5.3,0,10.7,0,16,0.1h0
				c0,0.1,0.1,0.1,0.1,0.2c-5.8,0-11.5-0.1-17.4,0c-1.8,0-3.5,0-5.3,0C266.4,63.6,266.5,63.4,266.6,63.2 M219.5,63.2l22-0.1
				c0,0,0.1,0.1,0.1,0.1c-5.3,0.1-10.6,0.1-15.9,0.2c5.4,0,10.7,0,16,0.1h0c0,0.1,0.1,0.1,0.1,0.2c-5.8,0-11.5-0.1-17.3,0
				c-1.8,0-3.5,0-5.3,0C219.2,63.6,219.3,63.4,219.5,63.2 M171.7,63.2l22-0.1c0,0,0.1,0.1,0.1,0.1c-5.3,0.1-10.6,0.1-15.9,0.2
				c5.4,0,10.7,0,16,0.1h0c0,0.1,0.1,0.1,0.1,0.2c-5.8,0-11.5-0.1-17.3,0c-1.8,0-3.5,0-5.3,0C171.5,63.6,171.5,63.4,171.7,63.2
				 M288.9,63.8L288.9,63.8 M288.9,63.8L288.9,63.8 M267.1,62.3c6.4,0,12.7,0.1,19.1,0.1c0.7,0,1.4,0,2.2,0c0.1,0.2,0.2,0.3,0.2,0.5
				L276,63l-9.3,0.1C266.8,62.8,266.9,62.6,267.1,62.3 M219.9,62.3c6.4,0,12.7,0.1,19.1,0.1c0.7,0,1.4,0,2.2,0
				c0.1,0.2,0.2,0.3,0.2,0.5L228.8,63l-9.3,0.1C219.6,62.8,219.8,62.6,219.9,62.3 M172.1,62.3c6.4,0,12.7,0.1,19.1,0.1
				c0.7,0,1.4,0,2.2,0c0.1,0.2,0.2,0.3,0.2,0.5L181,63l-9.3,0.1C171.8,62.8,172,62.6,172.1,62.3 M267.3,61.7c6.9,0,13.7,0,20.6,0
				c0,0,0.1,0.1,0.1,0.2l-17.9,0.1c4.2,0,8.5,0,12.7,0L267.2,62C267.3,61.9,267.3,61.8,267.3,61.7 M220.2,61.7c6.8,0,13.7,0,20.6,0
				c0,0,0,0.1,0.1,0.2l-18,0.1c4.2,0,8.5,0,12.7,0L220,62C220.1,61.9,220.1,61.8,220.2,61.7 M172.4,61.7c6.8,0,13.7,0,20.6,0
				c0,0,0,0.1,0.1,0.2l-18,0.1c4.2,0,8.5,0,12.7,0L172.3,62C172.3,61.9,172.3,61.8,172.4,61.7 M285.4,61.9c-0.9,0-1.8,0-2.6,0
				L285.4,61.9 M238.2,61.9c-0.9,0-1.8,0-2.6,0L238.2,61.9 M190.4,61.9c-0.9,0-1.8,0-2.6,0L190.4,61.9 M288,61.9l-2.6,0
				C286.3,61.9,287.1,61.9,288,61.9 M240.9,61.9l-2.6,0C239.1,61.9,240,61.9,240.9,61.9 M193.1,61.9l-2.6,0
				C191.3,61.9,192.2,61.9,193.1,61.9 M267.9,60.7c0.6,0,1.2,0,1.9,0c5.9-0.1,11.8-0.1,17.6-0.2c0.1,0.2,0.2,0.4,0.3,0.6l-3.9,0
				c1.3,0,2.6,0.1,3.9,0.1c0,0.1,0.1,0.1,0.1,0.2l-20.3,0.1C267.6,61.2,267.7,61,267.9,60.7 M220.7,60.7c0.6,0,1.2,0,1.9,0
				c5.9-0.1,11.7-0.1,17.6-0.2c0.1,0.2,0.2,0.4,0.3,0.6l-3.9,0c1.3,0,2.6,0.1,3.9,0.1c0,0.1,0.1,0.1,0.1,0.2l-20.3,0.1
				C220.4,61.2,220.6,61,220.7,60.7 M172.9,60.7c0.6,0,1.3,0,1.9,0c5.9-0.1,11.7-0.1,17.6-0.2c0.1,0.2,0.2,0.4,0.3,0.6l-3.9,0
				c1.3,0,2.6,0.1,3.9,0.1c0,0.1,0.1,0.1,0.1,0.2l-20.3,0.1C172.6,61.2,172.8,61,172.9,60.7 M268,60.3c2.1,0,4.2,0,6.3,0
				c4.3-0.1,8.6-0.1,12.8-0.2c0.1,0.1,0.1,0.2,0.2,0.3c-6.5,0.1-12.9,0.1-19.4,0.2C268,60.5,268,60.4,268,60.3 M220.9,60.3
				c2.1,0,4.2,0,6.3,0c4.3-0.1,8.5-0.1,12.8-0.2c0,0.1,0.1,0.2,0.1,0.3c-6.5,0.1-12.9,0.1-19.4,0.2
				C220.8,60.5,220.8,60.4,220.9,60.3 M173.1,60.3c2.1,0,4.2,0,6.3,0c4.3-0.1,8.5-0.1,12.8-0.2c0,0.1,0.1,0.2,0.1,0.3
				c-6.5,0.1-12.9,0.1-19.4,0.2C173,60.5,173,60.4,173.1,60.3 M268.3,60l13.6-0.1C277.3,59.9,272.8,59.9,268.3,60
				C268.3,59.9,268.3,59.9,268.3,60c6.3-0.1,12.5-0.1,18.7-0.2v0l-7.2,0.1l7.2,0c0,0,0,0.1,0,0.1c-6.3,0.1-12.6,0.1-18.9,0.2
				C268.2,60,268.2,60,268.3,60 M221.1,60l13.6-0.1C230.2,59.9,225.6,59.9,221.1,60C221.1,59.9,221.1,59.9,221.1,60
				c6.3-0.1,12.5-0.1,18.7-0.2c0,0,0,0,0,0l-7.2,0.1l7.2,0c0,0,0,0.1,0.1,0.1c-6.3,0.1-12.6,0.1-18.9,0.2C221,60,221.1,60,221.1,60
				 M173.3,60l13.6-0.1C182.4,59.9,177.8,59.9,173.3,60C173.3,59.9,173.3,59.9,173.3,60c6.3-0.1,12.5-0.1,18.7-0.2c0,0,0,0,0,0
				l-7.2,0.1l7.2,0c0,0,0,0.1,0.1,0.1c-6.3,0.1-12.6,0.1-18.9,0.2C173.2,60,173.3,60,173.3,60 M268.5,59.5l7.2,0l11.1-0.1
				c0,0.1,0.1,0.1,0.1,0.2c-6.2,0.1-12.3,0.1-18.5,0.1C268.4,59.7,268.4,59.6,268.5,59.5 M221.3,59.5l7.2,0l11.1-0.1
				c0,0.1,0.1,0.1,0.1,0.2c-6.2,0.1-12.3,0.1-18.5,0.1C221.2,59.7,221.3,59.6,221.3,59.5 M173.5,59.5l7.2,0l11.1-0.1
				c0,0.1,0.1,0.1,0.1,0.2c-6.2,0.1-12.3,0.1-18.5,0.1C173.4,59.7,173.5,59.6,173.5,59.5 M268.8,59c5.9,0,11.8-0.1,17.7-0.1
				c0,0.1,0.1,0.1,0.1,0.2l-17.9,0.1C268.7,59.1,268.7,59,268.8,59 M221.6,59c5.9,0,11.8-0.1,17.7-0.1c0,0.1,0.1,0.1,0.1,0.2
				l-17.9,0.1C221.5,59.1,221.6,59,221.6,59 M173.8,59c5.9,0,11.8-0.1,17.7-0.1c0,0.1,0.1,0.1,0.1,0.2l-17.9,0.1
				C173.7,59.1,173.8,59,173.8,59 M268.8,58.8c5.9,0,11.7-0.1,17.6-0.1c0,0,0,0,0,0L268.8,58.8C268.8,58.8,268.8,58.8,268.8,58.8
				 M221.7,58.8c5.9,0,11.7-0.1,17.6-0.1c0,0,0,0,0,0L221.7,58.8C221.7,58.8,221.7,58.8,221.7,58.8 M173.9,58.8
				c5.9,0,11.7-0.1,17.6-0.1c0,0,0,0,0,0L173.9,58.8C173.9,58.8,173.9,58.8,173.9,58.8 M269.2,58.1c2.8,0,5.6-0.1,8.4-0.1
				c2.8-0.1,5.6-0.1,8.5,0c0.1,0.2,0.2,0.3,0.2,0.5L269,58.6C269.1,58.4,269.2,58.3,269.2,58.1 M222.1,58.1c2.8,0,5.6-0.1,8.3-0.1
				c2.8-0.1,5.6-0.1,8.5,0c0.1,0.2,0.2,0.3,0.2,0.5l-17.3,0.1C221.9,58.4,222,58.3,222.1,58.1 M174.3,58.1c2.8,0,5.6-0.1,8.3-0.1
				c2.8-0.1,5.6-0.1,8.5,0c0.1,0.2,0.2,0.3,0.2,0.5L174,58.6C174.1,58.4,174.2,58.3,174.3,58.1 M269.5,57.6l14.7-0.1
				c0.5,0,1,0,1.5,0c0.1,0.1,0.1,0.2,0.2,0.3l-12,0.1c-1.5,0-3.1,0.1-4.6,0.1C269.4,57.9,269.4,57.7,269.5,57.6 M222.3,57.6
				l14.7-0.1c0.5,0,1,0,1.5,0c0.1,0.1,0.1,0.2,0.2,0.3l-12,0.1c-1.5,0-3.1,0.1-4.6,0.1C222.2,57.9,222.3,57.7,222.3,57.6
				 M174.5,57.6l14.7-0.1c0.5,0,1,0,1.5,0c0.1,0.1,0.1,0.2,0.2,0.3l-12,0.1c-1.5,0-3.1,0.1-4.6,0.1
				C174.4,57.9,174.5,57.7,174.5,57.6 M269.6,57.4C269.6,57.4,269.6,57.4,269.6,57.4C269.6,57.4,269.6,57.4,269.6,57.4L269.6,57.4
				c5.4,0,10.8-0.1,16.1-0.1c0,0,0,0,0,0L269.6,57.4C269.6,57.4,269.6,57.4,269.6,57.4 M222.4,57.4c5.4,0,10.7-0.1,16.1-0.1
				c0,0,0,0,0,0L222.4,57.4C222.4,57.4,222.4,57.4,222.4,57.4 M174.6,57.4c5.4,0,10.7-0.1,16.1-0.1c0,0,0,0,0,0L174.6,57.4
				C174.6,57.4,174.6,57.4,174.6,57.4 M222.6,57.1c4.3,0,8.5,0,12.8,0c1,0,2,0,3.1,0c0,0.1,0.1,0.1,0.1,0.2l-16.1,0.1
				C222.5,57.3,222.5,57.2,222.6,57.1 M174.8,57.1c4.3,0,8.5,0,12.8,0c1,0,2,0,3.1,0c0,0.1,0.1,0.1,0.1,0.2l-16.1,0.1
				C174.7,57.3,174.7,57.2,174.8,57.1 M269.8,57.1c4.3,0,8.5,0,12.8,0c1,0,2,0,3.1,0c0,0.1,0.1,0.1,0.1,0.2l-16,0.1c0,0,0,0,0,0
				C269.6,57.3,269.7,57.2,269.8,57.1 M270.2,56.4l15-0.1c0.1,0.2,0.2,0.3,0.2,0.4c-0.9,0-1.8,0-2.7,0c0.9,0,1.8,0,2.7,0
				c0,0,0,0.1,0.1,0.1L269.8,57C269.9,56.8,270,56.6,270.2,56.4 M223,56.4l15-0.1c0.1,0.2,0.2,0.3,0.2,0.4c-0.9,0-1.8,0-2.7,0
				c0.9,0,1.8,0,2.7,0c0,0,0.1,0.1,0.1,0.1L222.7,57C222.8,56.8,222.9,56.6,223,56.4 M175.2,56.4l15-0.1c0.1,0.2,0.2,0.3,0.2,0.4
				c-0.9,0-1.8,0-2.7,0c0.9,0,1.8,0,2.7,0c0,0,0.1,0.1,0.1,0.1L174.9,57C175,56.8,175.1,56.6,175.2,56.4 M270.4,55.9
				c4.8,0,9.7,0,14.5,0c0.1,0.1,0.1,0.2,0.2,0.3c-4.9,0-9.9,0.1-14.8,0.1C270.3,56.1,270.4,56,270.4,55.9 M223.3,55.9
				c4.8,0,9.7,0,14.5,0c0,0.1,0.1,0.2,0.2,0.3c-4.9,0-9.9,0.1-14.8,0.1C223.1,56.1,223.2,56,223.3,55.9 M175.5,55.9
				c4.8,0,9.7,0,14.5,0c0,0.1,0.1,0.2,0.2,0.3c-4.9,0-9.9,0.1-14.8,0.1C175.3,56.1,175.4,56,175.5,55.9 M270.6,55.7
				c4.7,0,9.4-0.1,14.2-0.1c0,0,0,0.1,0.1,0.1l-14.3,0.1C270.5,55.7,270.6,55.7,270.6,55.7 M223.4,55.7c4.7,0,9.5-0.1,14.2-0.1
				c0,0,0,0.1,0.1,0.1l-14.3,0.1C223.4,55.7,223.4,55.7,223.4,55.7 M175.6,55.7c4.7,0,9.5-0.1,14.2-0.1c0,0,0,0.1,0.1,0.1l-14.3,0.1
				C175.6,55.7,175.6,55.7,175.6,55.7 M270.7,55.4l13.9-0.1c0,0,0,0,0,0.1C280,55.5,275.3,55.5,270.7,55.4
				C270.7,55.5,270.7,55.5,270.7,55.4 M223.5,55.4l13.9-0.1c0,0,0,0,0,0.1C232.8,55.5,228.2,55.5,223.5,55.4
				C223.5,55.5,223.5,55.5,223.5,55.4 M175.7,55.4l13.9-0.1c0,0,0,0,0,0.1C185,55.5,180.4,55.5,175.7,55.4
				C175.7,55.5,175.7,55.5,175.7,55.4 M272,53.2l11.4-0.1c0,0,0,0.1,0.1,0.1c-1.8,0-3.6,0-5.4,0c1.8,0,3.6,0,5.5,0
				c0.2,0.2,0.3,0.5,0.5,0.8c-2.5,0-5,0.1-7.5,0.1c1.3,0,2.5,0.1,3.8,0.1c1.3,0,2.5,0,3.8,0c0.2,0.4,0.4,0.7,0.6,1.1l-13.9,0.1
				C271.2,54.7,271.6,53.9,272,53.2 M224.8,53.2l11.4-0.1c0,0,0,0.1,0.1,0.1c-1.8,0-3.7,0-5.5,0c1.8,0,3.7,0,5.5,0
				c0.1,0.2,0.3,0.5,0.4,0.8c-2.5,0-5,0.1-7.5,0.1c1.3,0,2.5,0.1,3.8,0.1c1.3,0,2.5,0,3.8,0c0.2,0.4,0.4,0.7,0.6,1.1l-13.9,0.1
				C224,54.7,224.4,53.9,224.8,53.2 M177,53.2l11.4-0.1c0,0,0,0.1,0.1,0.1c-1.8,0-3.6,0-5.5,0c1.8,0,3.7,0,5.5,0
				c0.1,0.2,0.3,0.5,0.4,0.8c-2.5,0-5,0.1-7.5,0.1c1.3,0,2.5,0.1,3.8,0.1c1.3,0,2.6,0,3.8,0c0.2,0.4,0.4,0.7,0.6,1.1l-13.9,0.1
				C176.2,54.7,176.6,53.9,177,53.2 M272.3,52.7l10.8-0.1c0.1,0.1,0.1,0.2,0.2,0.3l-11.2,0.1C272.1,53,272.2,52.8,272.3,52.7
				 M225.1,52.7l10.8-0.1c0.1,0.1,0.1,0.2,0.2,0.3l-11.2,0.1C225,53,225,52.8,225.1,52.7 M177.3,52.7l10.8-0.1
				c0.1,0.1,0.1,0.2,0.2,0.3l-11.2,0.1C177.2,53,177.3,52.8,177.3,52.7 M282.9,52.3C282.9,52.3,282.9,52.4,282.9,52.3l-10.4,0.1
				C275.9,52.4,279.4,52.4,282.9,52.3 M225.3,52.4L225.3,52.4C225.3,52.4,225.3,52.4,225.3,52.4L225.3,52.4 M177.5,52.4L177.5,52.4
				C177.5,52.4,177.5,52.4,177.5,52.4L177.5,52.4 M235.7,52.3L235.7,52.3l-10.4,0.1C228.8,52.4,232.3,52.4,235.7,52.3 M187.9,52.3
				L187.9,52.3l-10.4,0.1C181,52.4,184.5,52.4,187.9,52.3 M272.6,52.2h1c3,0,6-0.1,9.1-0.1c0.1,0.1,0.1,0.2,0.2,0.3l-10.4,0.1
				C272.5,52.3,272.6,52.3,272.6,52.2 M225.4,52.2h1c3,0,6-0.1,9.1-0.1c0.1,0.1,0.1,0.2,0.2,0.3l-10.4,0.1
				C225.4,52.3,225.4,52.3,225.4,52.2 M177.7,52.2h1c3,0,6.1-0.1,9.1-0.1c0.1,0.1,0.1,0.2,0.2,0.3l-10.4,0.1
				C177.6,52.3,177.6,52.3,177.7,52.2 M273.7,50.5l8.1,0c0.2,0.3,0.4,0.7,0.6,1l-5.1,0c-0.9,0-1.8,0-2.7,0l2.7,0c1.7,0,3.4,0,5.1,0
				c0.1,0.1,0.1,0.2,0.2,0.3h-0.4c-3.1,0.1-6.3,0.1-9.5,0.2C273.1,51.5,273.4,50.9,273.7,50.5 M226.5,50.5l8.1,0
				c0.2,0.3,0.4,0.7,0.6,1l-5.1,0c-0.9,0-1.8,0-2.7,0l2.7,0c1.7,0,3.4,0,5.1,0c0.1,0.1,0.1,0.2,0.2,0.3H235
				c-3.2,0.1-6.3,0.1-9.5,0.2C225.9,51.5,226.2,50.9,226.5,50.5 M178.7,50.5l8.1,0c0.2,0.3,0.4,0.7,0.6,1l-5.1,0c-0.9,0-1.8,0-2.7,0
				l2.7,0c1.7,0,3.4,0,5.1,0c0.1,0.1,0.1,0.2,0.2,0.3h-0.4c-3.2,0.1-6.3,0.1-9.5,0.2C178.1,51.5,178.4,50.9,178.7,50.5 M273.7,50.4
				c1.7,0,3.5,0,5.3,0L273.7,50.4C273.7,50.4,273.7,50.4,273.7,50.4 M226.5,50.4c1.7,0,3.5,0,5.2,0L226.5,50.4
				C226.5,50.4,226.5,50.4,226.5,50.4 M178.7,50.4c1.7,0,3.5,0,5.2,0L178.7,50.4C178.7,50.4,178.7,50.4,178.7,50.4 M281.7,50.4
				c-0.9,0-1.9,0-2.8,0L281.7,50.4 M234.6,50.4c-0.9,0-1.9,0-2.8,0L234.6,50.4 M186.8,50.4c-0.9,0-1.9,0-2.8,0L186.8,50.4
				 M273.8,50.3c2.6,0,5.2,0,7.8,0c0,0,0,0.1,0.1,0.1l-8,0C273.7,50.3,273.8,50.3,273.8,50.3 M226.6,50.3c2.6,0,5.2,0,7.8,0
				c0,0,0,0.1,0.1,0.1l-8,0C226.6,50.3,226.6,50.3,226.6,50.3 M178.8,50.3c2.6,0,5.2,0,7.8,0c0,0,0,0.1,0.1,0.1l-8,0
				C178.8,50.3,178.8,50.3,178.8,50.3 M274.5,49.1l6.4-0.1c0.2,0.3,0.4,0.6,0.6,0.9l-5.5,0c-0.7,0-1.3,0-2,0.1
				C274.1,49.7,274.3,49.4,274.5,49.1 M227.4,49.1l6.4-0.1c0.2,0.3,0.4,0.6,0.6,0.9l-5.5,0c-0.7,0-1.3,0-2,0.1
				C227,49.7,227.2,49.4,227.4,49.1 M179.6,49.1l6.4-0.1c0.2,0.3,0.4,0.6,0.6,0.9l-5.5,0c-0.6,0-1.3,0-2,0.1
				C179.2,49.7,179.4,49.4,179.6,49.1 M274.7,48.8c2,0,4,0,6,0c0.1,0.1,0.1,0.1,0.1,0.2c-2.1,0-4.2,0-6.3,0.1
				C274.6,49,274.7,48.9,274.7,48.8 M227.5,48.8c2,0,4,0,6,0c0,0.1,0.1,0.1,0.1,0.2c-2.1,0-4.2,0-6.3,0.1
				C227.4,49,227.5,48.9,227.5,48.8 M179.8,48.8c2,0,4,0,6,0c0,0.1,0.1,0.1,0.1,0.2c-2.1,0-4.2,0-6.3,0.1
				C179.7,49,179.7,48.9,179.8,48.8 M274.8,48.8l5.9,0c0,0,0,0,0,0.1C278.7,48.8,276.7,48.8,274.8,48.8
				C274.7,48.8,274.8,48.8,274.8,48.8 M227.6,48.8l5.9,0c0,0,0,0,0,0.1C231.5,48.8,229.5,48.8,227.6,48.8
				C227.6,48.8,227.6,48.8,227.6,48.8 M179.8,48.8l5.9,0c0,0,0,0,0,0.1C183.8,48.8,181.8,48.8,179.8,48.8
				C179.8,48.8,179.8,48.8,179.8,48.8 M280.5,48.4L280.5,48.4 M276.3,48.4c-0.5,0-0.9,0-1.3,0c0,0,0.1-0.1,0.1-0.1l5.4,0
				c0,0,0.1,0.1,0.1,0.1C279.1,48.4,277.7,48.4,276.3,48.4 M233.3,48.4L233.3,48.4 M229.1,48.4c-0.4,0-0.9,0-1.3,0
				c0,0,0-0.1,0.1-0.1l5.4,0c0,0,0.1,0.1,0.1,0.1C231.9,48.4,230.5,48.4,229.1,48.4 M185.5,48.4L185.5,48.4 M181.3,48.4
				c-0.4,0-0.9,0-1.3,0c0,0,0-0.1,0.1-0.1l5.4,0c0,0,0.1,0.1,0.1,0.1C184.1,48.4,182.7,48.4,181.3,48.4 M275.6,47.4
				c0.4,0,0.7,0,1.1,0c0.6,0,1.3,0,1.9,0c0.4,0,0.8,0,1.2,0c0.1,0.2,0.2,0.3,0.3,0.5c-1.6,0-3.2,0.1-4.9,0.1
				C275.4,47.8,275.5,47.6,275.6,47.4 M228.5,47.4c0.4,0,0.7,0,1.1,0c0.6,0,1.3,0,1.9,0c0.4,0,0.8,0,1.2,0c0.1,0.2,0.2,0.3,0.3,0.5
				c-1.6,0-3.2,0.1-4.8,0.1C228.2,47.8,228.3,47.6,228.5,47.4 M180.7,47.4c0.4,0,0.7,0,1.1,0c0.6,0,1.3,0,1.9,0c0.4,0,0.8,0,1.2,0
				c0.1,0.2,0.2,0.3,0.3,0.5c-1.6,0-3.2,0.1-4.8,0.1C180.4,47.8,180.6,47.6,180.7,47.4 M276.2,46.5c0.5,0,1,0,1.5,0c0.5,0,1,0,1.4,0
				c0.2,0.2,0.3,0.5,0.5,0.7l-3.9,0C275.9,47,276.1,46.7,276.2,46.5 M229.1,46.5c0.5,0,1,0,1.5,0s1,0,1.5,0c0.1,0.2,0.3,0.5,0.5,0.7
				l-3.9,0C228.8,47,228.9,46.7,229.1,46.5 M181.3,46.5c0.5,0,1,0,1.5,0c0.5,0,1,0,1.5,0c0.1,0.2,0.3,0.5,0.5,0.7l-3.9,0
				C181,47,181.1,46.7,181.3,46.5 M277.1,45.3c0.4-0.4,0.9-0.4,1.2,0c0.1,0.1,0.3,0.5,0.7,1c-0.9,0-1.8,0-2.7,0.1
				C276.8,45.7,277,45.4,277.1,45.3 M230,45.3c0.4-0.4,0.9-0.4,1.2,0c0.1,0.1,0.3,0.5,0.7,1c-0.9,0-1.8,0-2.7,0.1
				C229.6,45.7,229.9,45.4,230,45.3 M182.2,45.3c0.4-0.4,0.9-0.4,1.2,0c0.1,0.1,0.3,0.5,0.7,1c-0.9,0-1.8,0-2.7,0.1
				C181.8,45.7,182.1,45.4,182.2,45.3"/>
		</defs>
		<clipPath id="SVGID_00000138547326964936294510000009688813227769035411_">
			<use xlink:href="#SVGID_1_"  style="overflow:visible;"/>
		</clipPath>
		<g style="clip-path:url(#SVGID_00000138547326964936294510000009688813227769035411_);">
			
				<image style="overflow:visible;" width="387" height="222" xlink:href="AF9041F60F1A046A.jpg"  transform="matrix(0.509 0 0 0.5115 124.8441 43.6369)">
			</image>
		</g>
	</g>
</g>
</svg>
