<svg id="eYj3bNUsAwk1" xmlns="http://www.w3.org/2000/svg" xmlns:xlink="http://www.w3.org/1999/xlink" viewBox="0 0 900 500" shape-rendering="geometricPrecision" text-rendering="geometricPrecision">
<style><![CDATA[
#eYj3bNUsAwk13 {animation: eYj3bNUsAwk13_s_o 8000ms linear 1 normal forwards}@keyframes eYj3bNUsAwk13_s_o { 0% {stroke-opacity: 0} 45% {stroke-opacity: 0} 46.25% {stroke-opacity: 1} 100% {stroke-opacity: 1}} #eYj3bNUsAwk18 {animation-name: eYj3bNUsAwk18_s_o, eYj3bNUsAwk18_s_do;animation-duration: 8000ms;animation-fill-mode: forwards;animation-timing-function: linear;animation-direction: normal;animation-iteration-count: 1;}@keyframes eYj3bNUsAwk18_s_o { 0% {stroke-opacity: 1} 30% {stroke-opacity: 1} 31.25% {stroke-opacity: 0} 41.25% {stroke-opacity: 0} 42.5% {stroke-opacity: 1} 100% {stroke-opacity: 1}}@keyframes eYj3bNUsAwk18_s_do { 0% {stroke-dashoffset: 234} 17.5% {stroke-dashoffset: 234} 20% {stroke-dashoffset: 210} 28.75% {stroke-dashoffset: 210} 31.25% {stroke-dashoffset: -30} 42.5% {stroke-dashoffset: 234} 45% {stroke-dashoffset: 210} 100% {stroke-dashoffset: 210}} #eYj3bNUsAwk30_to {animation: eYj3bNUsAwk30_to__to 8000ms linear 1 normal forwards}@keyframes eYj3bNUsAwk30_to__to { 0% {transform: translate(-409.321673px,169.500004px)} 25% {transform: translate(359.000359px,169.5px)} 100% {transform: translate(359.000359px,169.5px)}} #eYj3bNUsAwk33 {animation-name: eYj3bNUsAwk33_s_o, eYj3bNUsAwk33_s_do;animation-duration: 8000ms;animation-fill-mode: forwards;animation-timing-function: linear;animation-direction: normal;animation-iteration-count: 1;}@keyframes eYj3bNUsAwk33_s_o { 0% {stroke-opacity: 1} 36.25% {stroke-opacity: 1} 37.5% {stroke-opacity: 0} 43.75% {stroke-opacity: 0} 45% {stroke-opacity: 1} 100% {stroke-opacity: 1}}@keyframes eYj3bNUsAwk33_s_do { 0% {stroke-dashoffset: 210} 20% {stroke-dashoffset: 210} 26.25% {stroke-dashoffset: 100} 31.25% {stroke-dashoffset: 100} 37.5% {stroke-dashoffset: -140} 45% {stroke-dashoffset: 210} 51.25% {stroke-dashoffset: 100} 100% {stroke-dashoffset: 100}} #eYj3bNUsAwk38 {animation-name: eYj3bNUsAwk38_s_o, eYj3bNUsAwk38_s_do;animation-duration: 8000ms;animation-fill-mode: forwards;animation-timing-function: linear;animation-direction: normal;animation-iteration-count: 1;}@keyframes eYj3bNUsAwk38_s_o { 0% {stroke-opacity: 1} 41.25% {stroke-opacity: 1} 42.5% {stroke-opacity: 0} 50% {stroke-opacity: 0} 51.25% {stroke-opacity: 1} 100% {stroke-opacity: 1}}@keyframes eYj3bNUsAwk38_s_do { 0% {stroke-dashoffset: 100} 26.25% {stroke-dashoffset: 100} 28.75% {stroke-dashoffset: 0} 37.5% {stroke-dashoffset: -140} 42.5% {stroke-dashoffset: -240} 51.25% {stroke-dashoffset: 100} 53.75% {stroke-dashoffset: 0} 100% {stroke-dashoffset: 0}} #eYj3bNUsAwk41 {animation-name: eYj3bNUsAwk41_s_o, eYj3bNUsAwk41_s_do;animation-duration: 8000ms;animation-fill-mode: forwards;animation-timing-function: linear;animation-direction: normal;animation-iteration-count: 1;}@keyframes eYj3bNUsAwk41_s_o { 0% {stroke-opacity: 0} 10% {stroke-opacity: 0} 12.5% {stroke-opacity: 1} 30% {stroke-opacity: 1} 31.25% {stroke-opacity: 0} 32.5% {stroke-opacity: 1} 100% {stroke-opacity: 1}}@keyframes eYj3bNUsAwk41_s_do { 0% {stroke-dashoffset: -329} 12.5% {stroke-dashoffset: -329} 21.25% {stroke-dashoffset: 0} 30% {stroke-dashoffset: 329.25} 31.25% {stroke-dashoffset: 330} 38.75% {stroke-dashoffset: 660} 100% {stroke-dashoffset: 660}} #eYj3bNUsAwk44 {animation-name: eYj3bNUsAwk44_s_o, eYj3bNUsAwk44_s_do;animation-duration: 8000ms;animation-fill-mode: forwards;animation-timing-function: linear;animation-direction: normal;animation-iteration-count: 1;}@keyframes eYj3bNUsAwk44_s_o { 0% {stroke-opacity: 0} 36.25% {stroke-opacity: 0} 37.5% {stroke-opacity: 1} 100% {stroke-opacity: 1}}@keyframes eYj3bNUsAwk44_s_do { 0% {stroke-dashoffset: -405} 36.25% {stroke-dashoffset: -405} 45% {stroke-dashoffset: -255} 100% {stroke-dashoffset: -255}} #eYj3bNUsAwk49 {animation-name: eYj3bNUsAwk49_s_o, eYj3bNUsAwk49_s_do;animation-duration: 8000ms;animation-fill-mode: forwards;animation-timing-function: linear;animation-direction: normal;animation-iteration-count: 1;}@keyframes eYj3bNUsAwk49_s_o { 0% {stroke-opacity: 0} 46.25% {stroke-opacity: 0} 47.5% {stroke-opacity: 1} 100% {stroke-opacity: 1}}@keyframes eYj3bNUsAwk49_s_do { 0% {stroke-dashoffset: -240} 46.25% {stroke-dashoffset: -240} 53.75% {stroke-dashoffset: 10} 100% {stroke-dashoffset: 10}}
]]></style>
<defs><rect id="eYj3bNUsAwk2" width="27" height="13" rx="0" ry="0"/><polygon id="eYj3bNUsAwk3" points="2.00946,0 0,6.215393 20.957886,6.215393 18.967163,0"/><polygon id="eYj3bNUsAwk4" points="154.533997,1.0401 152.26947,8.057251 0,8.057251 0,0 153.054077,0"/><polygon id="eYj3bNUsAwk5" points="72.910217,0 141.87262,0 141.87262,63.894959 2.518799,63.894959 0,55.837708 70.93631,55.837708"/><polygon id="eYj3bNUsAwk6" points="103.033691,0 106.214844,9.973392 2.730347,9.973392 0,0"/><polygon id="eYj3bNUsAwk7" points="54.365845,0 0,0 2.196411,6.973633 25.074463,26.265869 25.074463,51.549805 54.365845,51.549805"/></defs><g transform="translate(83.499298 116)"><g transform="translate(-600-728)"><g transform="translate(600 731)"><g transform="translate(348.494 93.9979)"><g mask="url(#eYj3bNUsAwk14)"><path id="eYj3bNUsAwk13" d="M99.519555,-24.499335c0-15.189536,12.308863-27.49859,27.491864-27.49859c15.185821,0,27.494685,12.309054,27.494685,27.49859s-12.308864,27.50141-27.494685,27.50141h-275.505315" fill="none" fill-rule="evenodd" stroke="#1c75bb" stroke-width="6" stroke-opacity="0" stroke-linecap="round"/><mask id="eYj3bNUsAwk14" mask-type="luminance" x="-150%" y="-150%" height="400%" width="400%"><use width="20.957886" height="6.215393" xlink:href="#eYj3bNUsAwk3" fill="#fff" fill-rule="evenodd"/></mask></g></g><g transform="translate(234 122)"><g mask="url(#eYj3bNUsAwk19)"><path id="eYj3bNUsAwk18" d="M5,6l166.903109.642382C183.552495,6.642382,193,16.125304,193,27.821191C193,39.514248,183.552495,49,171.903109,49" fill="none" fill-rule="evenodd" stroke="#5e7939" stroke-width="6" stroke-linecap="round" stroke-dashoffset="234" stroke-dasharray="233.318342"/><mask id="eYj3bNUsAwk19" mask-type="luminance" x="-150%" y="-150%" height="400%" width="400%"><use width="27" height="13" xlink:href="#eYj3bNUsAwk2" fill="#fff" fill-rule="evenodd"/></mask></g></g><g mask="url(#eYj3bNUsAwk29)"><g transform="translate(0 77)"><path d="M56.061583,174.110364c36.438476,0,54.532143-15.784909,54.532143-42.512142c0-25.960538-15.291575-43.270382-49.946646-43.270382h-51.98684v85.782524h47.401343Zm0-166.21791h-47.401343v72.542932h51.98684c26.499941,0,42.302269-13.233955,42.302269-36.39549c0-18.843235-10.44929-36.147442-46.887766-36.147442v0ZM81.288872,84.257589C105.751441,89.091717,119,106.145056,119,131.598222C119,163.418907,96.83159,182,56.061583,182h-54.280999C0.76472,182,0,181.489809,0,180.475065L0,1.527754C0,0.510191,0.76472,0,1.780584,0h54.280999C97.342344,0,111.60959,20.362533,111.60959,44.039896c0,20.616219-11.716298,34.870555-30.320718,40.217693v0Z" fill="#fefefe" fill-rule="evenodd" class="bewell-letter"/><path d="M188.997162,56.642826c-25.883139,0-42.797997,14.518549-42.797997,40.746698v17.319038h85.598832v-17.319038c0-25.974328-17.170284-40.746698-42.800835-40.746698v0ZM240,120.312361c0,1.018104-.769115,1.525745-1.535392,1.525745h-92.265443v16.811397c0,24.702404,19.733055,38.964312,43.056261,38.964312c19.988481,0,33.829716-9.168571,43.56995-17.82668.769115-.510462,1.535392-.510462,2.046243.253821l2.823873,3.310951c.769116.764282.769116,1.525745-.261101,2.039027C226.672454,175.320967,210.784975,185,188.997162,185C162.089482,185,138,167.937602,138,138.649503v-41.259979C138,66.57568,159.013022,49,188.997162,49C218.986978,49,240,66.57568,240,97.389524v22.922837Z" fill="#fefefe" fill-rule="evenodd" class="bewell-letter"/><path d="M297.84062,182c-1.018828,0-1.275652-.507372-1.786477-1.274068L244.065712,1.784258C243.808888,0.763877,244.319713,0,245.338541,0h5.861787c1.02165,0,1.278473.51301,1.529652,1.274068l48.423946,170.037294h.254001c5.353784-17.056158,10.707568-35.64007,53.012904-166.474415.254001-.761058.762004-1.527754,1.52683-1.527754h5.864609c1.016005,0,1.272829.766696,1.783654,1.527754l53.010081,166.474415c4.840137-17.309844,9.685918-35.12706,48.421124-170.037294C465.283952,0.51301,465.794777,0,466.810783,0h5.607785c1.018828,0,1.786476.763877,1.532475,1.784258L421.702966,180.725932c-.256824.766696-.764827,1.274068-1.529653,1.274068h-6.883436c-1.018828,0-1.526831-.507372-1.783654-1.274068L359.006966,15.78209h-.256823c-4.842959,16.799653-10.191099,33.855811-52.502079,164.943842-.251179.766696-.759182,1.274068-1.524008,1.274068h-6.883436Z" fill="#fff" fill-rule="evenodd"class="bewell-letter" /><path d="M536.001419,56.642826c-25.886697,0-42.802026,14.518549-42.802026,40.746698v17.319038h85.604052v-17.319038c0-25.974328-17.1736-40.746698-42.802026-40.746698v0ZM587,120.312361c0,1.018104-.76346,1.525745-1.532597,1.525745h-92.26801v16.811397c0,24.702404,19.736443,38.964312,43.057459,38.964312c19.989037,0,33.830657-9.168571,43.568324-17.82668.771975-.510462,1.541111-.510462,2.051977.253821l2.821114,3.310951c.769136.764282.769136,1.525745-.258271,2.039027C573.674921,175.320967,557.789838,185,536.001419,185C509.090153,185,485,167.937602,485,138.649503v-41.259979C485,66.57568,506.013606,49,536.001419,49s50.998581,17.57568,50.998581,48.389524v22.922837Z" fill="#fefefe" fill-rule="evenodd"  class="bewell-letter"/><path d="M651.579545,185C631.826705,185,619,172.753509,619,142.89739v-141.365872C619,0.511448,619.508523,0,620.539773,0h5.130682c1.028409,0,1.539772.511448,1.539772,1.531518v142.128805c0,24.241496,9.491478,33.68774,24.627841,33.68774c3.590909,0,9.491477-.259963,14.625-1.02007c1.022727,0,1.536932.251485,1.536932,1.274381v4.33459c0,1.02007-.514205,1.785829-1.536932,2.042966C662.099432,184.491378,655.690341,185,651.579545,185" fill="#fefefe" fill-rule="evenodd"  class="bewell-letter"/><path d="M716.58049,185C696.827076,185,684,172.753509,684,142.89739v-141.365872C684,0.511448,684.508537,0,685.536976,0h5.133672c1.025598,0,1.539817.511448,1.539817,1.531518v142.128805c0,24.241496,9.491753,33.68774,24.628555,33.68774c3.591013,0,9.491753-.259963,14.625424-1.02007c1.022757,0,1.536976.251485,1.536976,1.274381v4.33459c0,1.02007-.514219,1.785829-1.536976,2.042966C727.100681,184.491378,720.691405,185,716.58049,185" fill="#fefefe" fill-rule="evenodd"  class="bewell-letter"/></g><mask id="eYj3bNUsAwk29" mask-type="luminance" x="-150%" y="-150%" height="400%" width="400%"><g id="eYj3bNUsAwk30_to" transform="translate(-409.321673,169.500004)"><rect width="789.413512" height="228.083143" rx="0" ry="0" transform="translate(-394.706756,-114.041571)" fill="#d2dbed" stroke-width="0"/></g></mask></g><g transform="translate(265.761 123.669)"><g mask="url(#eYj3bNUsAwk34)"><path id="eYj3bNUsAwk33" d="M-26.76123,4.330566l166.903108.642383c11.649386,0,21.096892,9.482922,21.096892,21.178809c0,11.693057-9.447506,21.178808-21.096892,21.178808" fill="none" fill-rule="evenodd" stroke="#5e7939" stroke-width="6" stroke-linecap="round" stroke-dashoffset="210" stroke-dasharray="233.318342"/><mask id="eYj3bNUsAwk34" mask-type="luminance" x="-150%" y="-150%" height="400%" width="400%"><use width="106.214844" height="9.973392" xlink:href="#eYj3bNUsAwk6" fill="#fff" fill-rule="evenodd"/></mask></g></g><g transform="translate(377.369 125.022)"><g mask="url(#eYj3bNUsAwk39)"><path id="eYj3bNUsAwk38" d="M-138.369385,2.978027L28.533724,3.62041c11.649386,0,21.096891,9.482922,21.096891,21.178809c0,11.693057-9.447505,21.178808-21.096891,21.178808" fill="none" fill-rule="evenodd" stroke="#5e7939" stroke-width="6" stroke-linecap="round" stroke-dashoffset="100" stroke-dasharray="233.318342"/><mask id="eYj3bNUsAwk39" mask-type="luminance" x="-150%" y="-150%" height="400%" width="400%"><use width="54.365845" height="51.549805" xlink:href="#eYj3bNUsAwk7" fill="#fff" fill-rule="evenodd"/></mask></g></g><path id="eYj3bNUsAwk41" d="M388.356083,34.435925c-10.716421,6.941517-23.230672.495216-24.675709-9.935453C361.628533,9.743027,373.527514,0,385.561967,0h.022579C402.933463,0,417,14.10376,417,31.501415C417,48.89624,402.933463,63,385.584546,63L224,63" transform="translate(1 0)" paint-order="stroke fill markers" fill="none" stroke="#7f9e43" stroke-width="6" stroke-opacity="0" stroke-linecap="round" stroke-dashoffset="-329" stroke-dasharray="329.550662"/><g transform="translate(195.969 92.9578)"><g mask="url(#eYj3bNUsAwk45)"><path id="eYj3bNUsAwk44" d="M252.044091,-23.459235c0-15.189536,12.308864-27.49859,27.491864-27.49859c15.185821,0,27.494685,12.309054,27.494685,27.49859s-12.308864,27.50141-27.494685,27.50141h-275.505315" fill="none" fill-rule="evenodd" stroke="#0e76bc" stroke-width="6" stroke-opacity="0" stroke-linecap="round" stroke-dashoffset="-405" stroke-dasharray="405.099953"/><mask id="eYj3bNUsAwk45" mask-type="luminance" x="-150%" y="-150%" height="400%" width="400%"><use width="154.533997" height="8.057251" xlink:href="#eYj3bNUsAwk4" fill="#fff" fill-rule="evenodd"/></mask></g></g><g transform="translate(367.196 37.1201)"><g mask="url(#eYj3bNUsAwk50)"><path id="eYj3bNUsAwk49" d="M80.817223,32.378472c0-15.189536,12.308864-27.498589,27.491864-27.498589c15.185821,0,27.494685,12.309053,27.494685,27.498589s-12.308864,27.501411-27.494685,27.501411h-275.505315" fill="none" fill-rule="evenodd" stroke="#0e76bc" stroke-width="6" stroke-opacity="0" stroke-linecap="round" stroke-dashoffset="-240" stroke-dasharray="405.099952"/><mask id="eYj3bNUsAwk50" mask-type="luminance" x="-150%" y="-150%" height="400%" width="400%"><use width="141.87262" height="63.894958" xlink:href="#eYj3bNUsAwk5" fill="#fff" fill-rule="evenodd"/></mask></g></g></g></g></g></svg>
