<svg enable-background="new 0 0 687 190" viewBox="0 0 687 190" xmlns="http://www.w3.org/2000/svg" xmlns:xlink="http://www.w3.org/1999/xlink"><linearGradient id="a" gradientTransform="matrix(-.4839 -2.6408 -2.6408 .4839 1239.5514 1653.9877)" gradientUnits="userSpaceOnUse" x1="625.2394" x2="672.12" y1="301.3104" y2="334.1365"><stop offset=".2342" stop-color="#7e9c41"/><stop offset=".465" stop-color="#8da94c"/><stop offset=".6781" stop-color="#99b356"/></linearGradient><path clip-rule="evenodd" d="m118.33 23.74c16.27 56.16 43.29 172.64-60.33 141.37 33.48-28.24 47.43-46.95 58.29-111.32-11.93 54.54-32.86 77.53-69.82 103.55-65.79-72.38 55.59-78.19 71.86-133.6z" fill="url(#a)" fill-rule="evenodd"/><path clip-rule="evenodd" d="m133.8 103.25c2.29 44.27-11.94 81.14-75.81 61.86 13.49-11.38 23.81-21.22 32.04-33.12 18.03-3.66 33.57-14.19 43.77-28.74zm-57.82 30.16c-8.49 8.35-18.26 16-29.53 23.94-16.19-17.81-21.03-31.58-18.91-43.06 12.64 11.86 29.64 19.13 48.34 19.13.04-.01.07-.01.1-.01z" fill="#99b356" fill-rule="evenodd"/><path d="m167.94 41.26 30.3 40.32 29.87-40.32h1.22v67.2h-8.67v-39.85l-22.07 27.66h-1.04l-22.07-27.23v39.41h-8.67v-67.2h1.13z" fill="#99b356"/><path d="m291.92 51.64c-3.21-2.51-6.59-3.47-9.63-3.47-7.2 0-12.4 5.03-12.4 13 0 6.85 3.9 13.01 11.96 13.01 4.85 0 7.98-2.25 10.4-5.64l4.16 3.47c-2.86 4.85-7.8 8.58-15.61 8.58-12.4 0-18.73-9.45-18.73-19.51 0-11.79 8.76-19.33 19.33-19.33 5.03 0 10.23 1.73 14.22 4.94z" fill="#99b356"/><path d="m368.9 55.57c-6.42-3.47-13.7-5.72-20.38-5.72-8.24 0-13.53 3.47-13.53 10.23 0 5.03 2.95 7.11 8.32 9.02 4.42 1.56 13.7 3.99 18.9 6.16 7.55 3.12 11.1 7.46 11.1 15.09 0 11.7-8.24 18.99-23.15 18.99-6.42 0-17.17-1.39-24.8-6.16l2.08-8.15c7.02 3.99 16.47 5.72 22.63 5.72 9.45 0 14.13-4.08 14.13-10.75 0-4.51-2.17-7.11-7.89-9.02-3.47-1.13-12.92-3.64-17.95-5.64-7.02-2.77-12.4-7.2-12.4-16.04 0-11.53 9.1-18.03 23.06-18.03 7.72 0 15.26 1.99 21.94 6.07z" fill="#99b356"/><path d="m449.18 42.13v9.02h-19.33v57.31h-9.19v-57.32h-19.26v-9.02h47.78z" fill="#99b356"/><path d="m500.32 41.26 29.48 67.2h-9.89l-7.2-17.17h-26.36l-7.28 17.17h-9.54l29.56-67.2zm-11.27 43.52h20.89l-10.4-24.71z" fill="#99b356"/><path d="m568.46 42.13v66.33h-9.19v-66.33z" fill="#99b356"/><path d="m604.69 41.26 43.44 46.73v-45.86h8.84v67.2h-1.13l-43.44-46.73v45.87h-8.84v-67.2h1.13z" fill="#99b356"/><g fill="#fff"><path d="m245.86 129.28h-1c-.76 0-1.34.58-1.34 1.34v14.04l-11.1-14.83c-.21-.32-.62-.54-1.07-.54-.79 0-1.37.58-1.37 1.35v20.87c0 .76.58 1.34 1.34 1.34h.98c.76 0 1.34-.58 1.34-1.34v-13.94l11.04 14.73c.21.32.62.54 1.07.54h.1c.76 0 1.34-.58 1.34-1.34v-20.88c.01-.77-.56-1.34-1.33-1.34z"/><path d="m274.3 129.28h-13.3c-.76 0-1.34.58-1.34 1.34v20.88c0 .76.58 1.34 1.34 1.34h13.3c.76 0 1.34-.58 1.34-1.34v-.98c0-.76-.58-1.34-1.34-1.34h-10.98v-6.29h6.93c.76 0 1.34-.57 1.34-1.34v-.98c0-.76-.58-1.34-1.34-1.34h-6.93v-6.28h10.98c.76 0 1.34-.57 1.34-1.34v-1c-.01-.76-.58-1.33-1.34-1.33z"/><path d="m288.64 129.26h-1c-.76 0-1.34.58-1.34 1.34v20.9c0 .76.58 1.34 1.34 1.34h1c.76 0 1.34-.58 1.34-1.34v-20.9c0-.76-.58-1.34-1.34-1.34z"/><path d="m320.7 140.28h-5.65c-.76 0-1.34.58-1.34 1.34v1c0 .76.58 1.34 1.34 1.34h3.33v3.28c-1.5 1.3-3.23 1.94-5.27 1.94-1.14 0-2.25-.24-3.28-.7-1.01-.44-1.9-1.08-2.65-1.89-.76-.81-1.33-1.74-1.7-2.78-.39-1.07-.54-2.21-.46-3.37.17-2.12 1.02-3.87 2.61-5.34 1.57-1.44 3.36-2.14 5.46-2.14 2.3.01 4.14.77 5.71 2.34.3.27.62.4.95.4s.65-.13.91-.36l.75-.73c.54-.54.55-1.36.01-1.9-1.21-1.19-2.61-2.08-4.16-2.66-1.3-.5-2.69-.75-4.1-.75-.26 0-.52.01-.79.03-2.87.17-5.38 1.29-7.47 3.32s-3.27 4.51-3.52 7.38c-.15 1.74.07 3.45.66 5.08.58 1.56 1.46 2.96 2.61 4.16 1.16 1.19 2.53 2.11 4.06 2.73 1.4.57 2.88.85 4.4.85.21 0 .41-.01.62-.02 1.48-.08 2.92-.44 4.3-1.07 1.34-.64 2.54-1.49 3.59-2.55.28-.28.42-.61.42-.97v-6.6c0-.78-.57-1.36-1.34-1.36zm-12.43-7.09c.16-.1.34-.16.5-.26-.17.09-.34.16-.5.26zm1.5-.77c.21-.08.43-.12.65-.18-.21.07-.44.1-.65.18zm1.63-.45c.24-.04.49-.04.73-.06-.24.02-.49.02-.73.06zm8.35 2.58c-.05 0-.1-.02-.15-.07.1.09.2.09.3 0-.05.05-.1.07-.15.07zm-4.52-3.92c-.1-.02-.2-.04-.29-.06.09.02.19.04.29.06zm-2.07-.22c.05 0 .09.01.14.01-.28 0-.56-.01-.85.01.24-.01.48-.02.71-.02zm-2.98 20.88c-.35-.1-.7-.22-1.04-.36.35.14.69.26 1.04.36zm2.94.42c-.12 0-.23-.01-.35-.02.3.01.6.02.91 0-.19.01-.38.02-.56.02zm-2.59-.33c.24.06.47.12.71.16-.24-.05-.48-.1-.71-.16zm1.13.22c.22.03.44.06.67.07-.23-.02-.45-.04-.67-.07z"/><path d="m349.88 129.29h-1c-.76 0-1.34.57-1.34 1.34v8.57h-9.89v-8.6c0-.76-.57-1.34-1.32-1.34h-1c-.76 0-1.34.58-1.34 1.34v9.73 1.41 9.73c0 .76.58 1.34 1.34 1.34h1c.75 0 1.32-.58 1.32-1.34v-8.6h9.89v8.63c0 .76.58 1.34 1.34 1.34h1c.76 0 1.32-.58 1.32-1.34v-9.76-1.41-9.7c0-.76-.57-1.34-1.32-1.34z"/><path d="m377.39 139.97c.27-.31.51-.66.72-1.02.52-.89.81-1.88.84-2.93.07-1.83-.54-3.44-1.82-4.76-1.27-1.31-2.84-1.98-4.67-1.98h-7.46c-.76 0-1.34.58-1.34 1.34v20.88c0 .76.58 1.34 1.34 1.34h8.06c1.98 0 3.7-.71 5.12-2.11 1.45-1.42 2.16-3.14 2.12-5.13-.02-1.43-.45-2.75-1.27-3.94-.46-.66-1.01-1.23-1.64-1.69zm-4.19 9.21h-5.88v-6.9h5.88c.96 0 1.75.33 2.43 1.01.69.68 1.02 1.48 1.02 2.44 0 .95-.33 1.75-1.02 2.42-.69.7-1.48 1.03-2.43 1.03zm1.26-11.4c-.56.56-1.2.83-2 .83h-5.15v-5.67h5.15c.79 0 1.44.27 2 .83.57.57.83 1.21.83 2.01 0 .78-.27 1.44-.83 2z"/><path d="m410.71 132.71c-1.1-1.09-2.36-1.93-3.75-2.52-1.45-.62-3-.94-4.59-.94s-3.14.32-4.59.94c-1.39.59-2.65 1.43-3.74 2.51-1.08 1.09-1.93 2.35-2.54 3.75-.62 1.46-.93 3.01-.93 4.6s.31 3.13.92 4.59c.61 1.41 1.46 2.66 2.53 3.75 1.1 1.09 2.35 1.94 3.75 2.53 1.46.61 3 .92 4.6.92 1.59 0 3.14-.31 4.59-.92 1.4-.6 2.66-1.45 3.75-2.53 1.09-1.09 1.93-2.36 2.52-3.76.62-1.45.94-3 .94-4.59s-.32-3.14-.94-4.59c-.59-1.4-1.44-2.66-2.52-3.74zm-8.34 16.46c-1.09 0-2.15-.22-3.16-.64-.97-.41-1.84-.99-2.59-1.74-.74-.74-1.33-1.61-1.74-2.58-.42-1.01-.64-2.07-.64-3.16s.21-2.15.64-3.16c.41-.97.99-1.84 1.74-2.59.74-.74 1.61-1.33 2.58-1.73 1.01-.42 2.07-.64 3.16-.64s2.15.21 3.16.64c.97.41 1.84.99 2.59 1.74.74.74 1.33 1.61 1.74 2.58.42 1.01.64 2.07.64 3.16s-.22 2.16-.64 3.16c-.41.97-.99 1.84-1.74 2.58-.75.75-1.61 1.33-2.58 1.74-1.01.42-2.07.64-3.16.64z"/><path d="m440.71 136.02c-.04-1.86-.73-3.47-2.05-4.78-1.34-1.31-2.96-1.96-4.81-1.96h-7.65c-.76 0-1.34.58-1.34 1.34v8.17 3.08 9.64c0 .76.58 1.34 1.34 1.34h1c.75 0 1.32-.58 1.32-1.34v-8.51h3.07l5.01 9.16c.25.44.68.69 1.17.69h1.13c.49 0 .92-.25 1.16-.68s.23-.91 0-1.32l-4.44-8.12c1.13-.31 2.14-.9 3.03-1.77 1.4-1.37 2.08-3.04 2.06-4.94zm-6.86 3.3h-5.33v-.54-5.85h5.33c.89 0 1.62.31 2.25.93.62.63.93 1.38.93 2.27s-.3 1.62-.93 2.25c-.62.63-1.36.94-2.25.94z"/><path d="m468.07 129.29h-1c-.76 0-1.34.57-1.34 1.34v8.57h-9.89v-8.6c0-.76-.57-1.34-1.32-1.34h-1c-.76 0-1.34.58-1.34 1.34v9.73 1.41 9.73c0 .76.58 1.34 1.34 1.34h1c.75 0 1.32-.58 1.32-1.34v-8.6h9.89v8.63c0 .76.58 1.34 1.34 1.34h1c.76 0 1.32-.58 1.32-1.34v-9.76-1.41-9.7c.01-.76-.56-1.34-1.32-1.34z"/><path d="m500.73 132.71c-1.1-1.09-2.36-1.93-3.75-2.52-1.45-.62-3-.94-4.59-.94s-3.14.32-4.59.94c-1.39.59-2.65 1.43-3.74 2.51-1.08 1.09-1.93 2.35-2.54 3.75-.62 1.46-.93 3.01-.93 4.6s.31 3.13.92 4.59c.61 1.41 1.46 2.66 2.53 3.75 1.1 1.09 2.35 1.94 3.75 2.53 1.46.61 3 .92 4.6.92 1.59 0 3.14-.31 4.59-.92 1.4-.6 2.66-1.45 3.75-2.53 1.09-1.09 1.93-2.36 2.52-3.76.62-1.45.94-3 .94-4.59s-.32-3.14-.94-4.59c-.6-1.4-1.44-2.66-2.52-3.74zm-8.35 16.46c-1.09 0-2.15-.22-3.16-.64-.97-.41-1.84-.99-2.59-1.74-.74-.74-1.33-1.61-1.74-2.58-.42-1.01-.64-2.07-.64-3.16s.21-2.15.64-3.16c.41-.97.99-1.84 1.74-2.59.74-.74 1.61-1.33 2.58-1.73 1.01-.42 2.07-.64 3.16-.64s2.15.21 3.16.64c.97.41 1.84.99 2.59 1.74.74.74 1.33 1.61 1.74 2.58.43 1.01.64 2.07.64 3.16s-.22 2.16-.64 3.16c-.41.97-.99 1.84-1.74 2.58-.75.75-1.61 1.33-2.58 1.74-1 .42-2.07.64-3.16.64z"/><path d="m535.02 132.71c-1.1-1.09-2.36-1.93-3.75-2.52-1.45-.62-3-.94-4.59-.94s-3.14.32-4.59.94c-1.39.59-2.65 1.43-3.74 2.51-1.08 1.09-1.93 2.35-2.54 3.75-.62 1.46-.93 3.01-.93 4.6s.31 3.14.92 4.59c.61 1.41 1.46 2.67 2.53 3.75 1.1 1.09 2.35 1.94 3.75 2.53 1.46.61 3 .92 4.6.92 1.59 0 3.14-.31 4.59-.92 1.4-.6 2.66-1.45 3.75-2.53 1.09-1.09 1.93-2.36 2.52-3.76.62-1.45.94-2.99.94-4.59 0-1.59-.32-3.14-.94-4.59-.59-1.4-1.44-2.66-2.52-3.74zm-8.34 16.46c-1.09 0-2.15-.22-3.16-.64-.97-.41-1.84-.99-2.59-1.74-.74-.74-1.33-1.61-1.74-2.58-.42-1.01-.64-2.07-.64-3.16s.21-2.15.64-3.16c.41-.97.99-1.84 1.74-2.59.74-.74 1.61-1.33 2.58-1.73 1.01-.42 2.07-.64 3.16-.64s2.15.21 3.16.64c.97.41 1.84.99 2.59 1.74.74.74 1.33 1.61 1.74 2.58.43 1.01.64 2.07.64 3.16s-.22 2.16-.64 3.16c-.41.97-.99 1.84-1.74 2.58-.75.75-1.61 1.33-2.58 1.74-1.01.42-2.07.64-3.16.64z"/><path d="m565.26 132.63c-1.08-1.07-2.33-1.9-3.72-2.48-1.44-.6-2.97-.91-4.55-.91h-6.47c-.76 0-1.34.58-1.34 1.34v20.91c0 .76.58 1.34 1.34 1.34h6.29c1.61 0 3.18-.32 4.67-.95 1.43-.59 2.72-1.46 3.83-2.56 1.12-1.12 1.98-2.4 2.58-3.81.63-1.49.93-3.07.89-4.69-.02-1.56-.35-3.08-.97-4.5-.62-1.39-1.47-2.63-2.55-3.69zm-8.28 16.54h-4.14v-16.26h4.14c1.1 0 2.17.22 3.17.64.96.41 1.82 1 2.57 1.75.76.75 1.34 1.62 1.75 2.58.43 1 .64 2.06.64 3.16 0 1.09-.22 2.16-.64 3.16-.41.97-.99 1.84-1.75 2.58-.75.75-1.62 1.33-2.58 1.74-.99.43-2.06.65-3.16.65z"/><path d="m593.76 146-.02-.15-.01-.24c0-.07-.01-.22-.04-.41l-.07-.34c-.2-.98-.64-1.88-1.3-2.66-.54-.62-1.22-1.19-2.04-1.71-.58-.37-1.3-.74-2.13-1.12l-.96-.44-.49-.23-.24-.11-.3-.13c-.7-.31-1.28-.59-1.71-.84-.51-.3-.92-.62-1.21-.94l-.09-.12-.04-.06-.04-.05-.01-.01-.06-.1-.06-.11-.02-.04-.02-.04-.02-.04-.04-.07-.01-.03-.06-.19-.01-.02v-.01l-.02-.13-.01-.19-.01-.09.01-.2c0-.13.02-.2.03-.3l.02-.09v-.05l.05-.23c.08-.27.23-.55.45-.77.23-.25.51-.43.87-.56.32-.13.73-.23 1.21-.29l.11-.01.19-.02c.15-.02.22-.03.29-.03h.36.34c.25.01.62.06 1.06.14.55.12 1.11.33 1.64.61.18.11.41.26.65.43.07.06.17.13.29.21.06.05.12.1.19.15.24.2.53.3.83.3.34 0 .67-.14.93-.39l.63-.62c.27-.26.41-.6.41-.96 0-.35-.15-.69-.41-.95l-.03-.03-.03-.03c-.1-.08-.17-.15-.22-.19l-.05-.05-.06-.04c-.21-.16-.42-.31-.64-.45-.23-.17-.54-.35-.85-.52-.8-.43-1.66-.75-2.55-.95-.66-.13-1.22-.2-1.71-.21l-.38-.01h-.02-.02-.4c-.15 0-.33.01-.54.04l-.15.01-.22.01h-.04l-.04.01c-.79.1-1.46.27-2.05.5-.83.34-1.54.8-2.11 1.37-.67.66-1.13 1.48-1.38 2.45l-.07.25-.01.04-.01.04c-.03.13-.05.25-.06.36-.03.24-.05.46-.06.62v.36.09.07l.01.14.01.05v.19.11l.02.11.06.31.03.17.02.13.01.08.02.08.08.25c.04.14.09.28.16.44l.06.12.04.1.02.06.03.06c.08.15.2.35.36.6l.13.18.1.13c.11.14.2.25.29.34.49.54 1.18 1.1 2.02 1.6.56.33 1.27.68 2.11 1.05l.28.12.17.08.45.22 1.04.47c1.75.81 2.54 1.47 2.89 1.89.27.32.45.67.53 1.06l.01.04.01.06.02.06v.01.01.04.04l.01.18v.05l-.01.3v.11l-.01.05-.03.21-.03.16c-.08.36-.23.71-.46 1.01-.22.28-.5.5-.84.67-.34.18-.74.31-1.2.42l-.17.03-.04.01-.04.01-.14.03c-.11.01-.2.02-.28.03l-.38.03-.32.01h-.15-.09l-.07.01-.35-.01c-.1 0-.17-.01-.23-.02l-.24-.02-.17-.01c-.28-.04-.65-.12-1.06-.23-.58-.15-1.13-.39-1.66-.69-.21-.12-.39-.23-.56-.36-.14-.1-.26-.19-.37-.28l-.09-.08-.1-.09c-.2-.19-.53-.32-.86-.32-.36 0-.69.15-.95.41l-.69.64c-.57.57-.56 1.39-.03 1.92.15.13.26.23.38.33.19.16.4.31.61.46.25.17.53.36.82.53.81.46 1.65.81 2.52 1.05.59.16 1.14.26 1.65.32l.17.02.04.01h.04l.21.02c.14.02.32.03.47.03l.34.01h.02.08.18.04.04l.21-.02.38-.01h.04.04l.4-.04c.17 0 .36-.03.57-.07l.18-.02.05-.01.05-.01.22-.05c.82-.18 1.55-.44 2.17-.76.82-.42 1.51-.99 2.05-1.69.57-.72.96-1.58 1.15-2.54l.05-.36.04-.3.01-.08v-.08-.07l.01-.05.01-.04v-.04l.02-.25v-.03-.11-.09-.06zm-2.46-12.47c-.04 0-.08-.02-.13-.06.05.04.09.06.13.06z"/></g><path d="m166.82 139.73h45.75" fill="none" stroke="#fff" stroke-linecap="round" stroke-miterlimit="10" stroke-width="1.0969"/><path d="m611.22 139.73h45.75" fill="none" stroke="#fff" stroke-linecap="round" stroke-miterlimit="10" stroke-width="1.0969"/></svg>