<?xml version="1.0" encoding="UTF-8"?>
<svg width="376px" height="295px" viewBox="0 0 376 295" version="1.1" xmlns="http://www.w3.org/2000/svg" xmlns:xlink="http://www.w3.org/1999/xlink">
    <title>westerly-logo</title>
    <g id="Page-1" stroke="none" stroke-width="1" fill="none" fill-rule="evenodd">
        <g id="Artboard" transform="translate(-38.000000, -37.000000)">
            <g id="westerly-logo" transform="translate(38.940000, 37.000000)">
                <g id="westerly" transform="translate(0.000000, 199.298000)" fill="#FFFFFF">
                    <path d="M44.205,2.3 L44.205,2.768 C44.205,3.2 44.444,3.596 44.826,3.798 L48.877,5.94 L42.703,26.668 C42.67,26.778 42.57,26.852 42.457,26.852 L42.41,26.852 C42.299,26.852 42.201,26.782 42.167,26.677 L33.919,1.932 C33.76,1.456 33.315,1.135 32.813,1.135 L31.047,1.135 C30.555,1.135 30.116,1.444 29.95,1.906 L21.018,26.75 C20.981,26.851 20.885,26.918 20.777,26.918 L20.729,26.918 C20.614,26.918 20.513,26.842 20.482,26.731 L14.372,4.805 L17.681,3.732 C18.162,3.576 18.487,3.128 18.487,2.623 L18.487,2.3 C18.487,1.657 17.965,1.135 17.322,1.135 L1.166,1.135 C0.522,1.135 0,1.657 0,2.3 L0,2.671 C0,3.153 0.296,3.585 0.746,3.758 L4.605,5.251 L14.336,35.961 C14.49,36.446 14.939,36.775 15.448,36.775 L20.291,36.775 C20.784,36.775 21.224,36.464 21.389,36.001 L28.253,16.745 C28.29,16.642 28.387,16.574 28.495,16.574 C28.601,16.574 28.695,16.639 28.733,16.737 L36.263,36.033 C36.438,36.48 36.869,36.775 37.349,36.775 L42.441,36.775 C42.938,36.775 43.38,36.46 43.542,35.99 L53.838,6.229 L58.2,3.803 C58.57,3.598 58.799,3.208 58.799,2.785 L58.799,2.3 C58.799,1.657 58.277,1.135 57.634,1.135 L45.371,1.135 C44.727,1.135 44.205,1.657 44.205,2.3" id="Fill-1"></path>
                    <path d="M101.017,24.181 C100.604,24.126 100.192,24.297 99.939,24.629 L96.032,29.745 C94.542,31.591 92.473,32.725 89.647,32.725 L82.417,32.881 L82.417,20.2 L84.197,20.2 C87.089,20.2 88.736,21.536 89.937,24.293 L90.197,24.927 C90.376,25.365 90.802,25.651 91.275,25.651 L91.663,25.651 C92.307,25.651 92.829,25.129 92.829,24.486 L92.829,12.712 C92.829,12.068 92.307,11.546 91.663,11.546 L91.255,11.546 C90.792,11.546 90.373,11.82 90.188,12.244 L89.937,12.815 C88.802,15.595 87.089,16.863 84.197,16.863 L82.417,16.863 L82.417,4.605 L88.157,4.671 C91.627,4.739 93.407,5.874 95.098,8.142 L98.449,12.625 C98.702,12.961 99.116,13.136 99.534,13.083 L99.814,13.045 C100.426,12.966 100.87,12.422 100.826,11.806 L100.137,2.217 C100.093,1.607 99.585,1.135 98.974,1.135 L68.789,1.135 C68.145,1.135 67.623,1.657 67.623,2.3 L67.623,2.583 C67.623,3.107 67.973,3.567 68.479,3.707 L72.784,4.894 L72.784,32.592 L68.483,33.76 C67.976,33.898 67.623,34.359 67.623,34.885 L67.623,35.097 C67.623,35.741 68.145,36.263 68.789,36.263 L100.079,36.263 C100.675,36.263 101.175,35.814 101.238,35.221 L102.274,25.493 C102.342,24.863 101.894,24.295 101.266,24.213 L101.017,24.181" id="Fill-4"></path>
                    <path d="M135.52,15.595 C133.251,14.661 130.825,13.949 128.846,13.237 C125.308,11.835 123.684,10.634 123.684,7.786 C123.684,5.317 125.597,3.336 128.712,3.336 C131.994,3.336 135.07,5.241 138.458,11.223 C138.689,11.632 139.138,11.869 139.606,11.816 L140.92,11.67 C141.544,11.601 142.001,11.05 141.954,10.424 L141.251,1.078 C141.205,0.47 140.699,0 140.089,0 L139.321,0 C138.933,0 138.571,0.193 138.355,0.514 L137.277,2.114 C134.808,0.913 131.826,0.067 128.556,0.067 C122.127,0.067 115.876,4.25 115.876,11.546 C115.876,16.796 119.279,19.421 123.395,21.113 C125.53,22.025 127.777,22.669 129.847,23.382 C133.939,24.873 135.942,26.074 135.942,29.122 C135.942,32.169 133.517,34.149 130.046,34.149 C125.926,34.149 122.266,31.68 118.498,24.754 C118.28,24.355 117.853,24.112 117.398,24.139 L116.039,24.223 C115.404,24.262 114.919,24.802 114.946,25.437 L115.405,36.148 C115.432,36.772 115.945,37.263 116.569,37.263 L117.315,37.263 C117.708,37.263 118.074,37.066 118.29,36.738 L119.346,35.127 C122.26,36.352 126.376,37.331 130.046,37.331 C137.077,37.331 143.662,33.237 143.662,25.496 C143.662,19.755 139.769,17.286 135.52,15.595" id="Fill-5"></path>
                    <path d="M189.33,1.135 L157.038,1.135 C156.433,1.135 155.929,1.597 155.877,2.199 L154.86,13.835 C154.808,14.431 155.214,14.969 155.801,15.082 L156.186,15.156 C156.659,15.246 157.139,15.037 157.394,14.628 L160.375,9.856 C162.777,6.229 164.112,4.739 166.604,4.671 L168.294,4.605 L168.294,32.592 L163.782,33.767 C163.269,33.901 162.911,34.364 162.911,34.895 L162.911,35.097 C162.911,35.741 163.433,36.263 164.076,36.263 L182.234,36.263 C182.878,36.263 183.4,35.741 183.4,35.097 L183.4,34.895 C183.4,34.364 183.042,33.901 182.528,33.767 L178.017,32.592 L178.017,4.605 L179.484,4.671 C182.177,4.805 183.467,6.163 185.803,9.856 L188.848,14.638 C189.105,15.042 189.582,15.247 190.051,15.157 L190.453,15.08 C191.036,14.968 191.441,14.436 191.395,13.844 L190.492,2.21 C190.445,1.603 189.938,1.135 189.33,1.135" id="Fill-6"></path>
                    <path d="M235.23,24.18 C234.817,24.126 234.408,24.296 234.154,24.626 L230.225,29.745 C228.735,31.591 226.688,32.725 223.863,32.725 L216.632,32.881 L216.632,20.2 L218.39,20.2 C221.304,20.2 222.928,21.536 224.129,24.293 L224.406,24.943 C224.589,25.373 225.011,25.651 225.478,25.651 L225.878,25.651 C226.522,25.651 227.044,25.129 227.044,24.486 L227.044,12.712 C227.044,12.068 226.522,11.546 225.878,11.546 L225.458,11.546 C225.001,11.546 224.586,11.813 224.397,12.228 L224.129,12.815 C222.995,15.595 221.304,16.863 218.39,16.863 L216.632,16.863 L216.632,4.605 L222.372,4.671 C225.842,4.739 227.6,5.874 229.313,8.142 L232.665,12.625 C232.917,12.961 233.332,13.136 233.749,13.083 L234.029,13.045 C234.641,12.966 235.085,12.422 235.041,11.806 L234.352,2.217 C234.308,1.607 233.8,1.135 233.189,1.135 L202.981,1.135 C202.337,1.135 201.816,1.657 201.816,2.3 L201.816,2.582 C201.816,3.107 202.167,3.567 202.672,3.706 L207,4.894 L207,32.592 L202.677,33.761 C202.169,33.898 201.816,34.36 201.816,34.886 L201.816,35.097 C201.816,35.741 202.337,36.263 202.981,36.263 L234.294,36.263 C234.89,36.263 235.39,35.814 235.453,35.221 L236.49,25.493 C236.557,24.863 236.109,24.295 235.482,24.213 L235.23,24.18" id="Fill-7"></path>
                    <path d="M264.953,17.998 L262.195,17.998 L262.195,4.671 C262.483,4.605 264.463,4.671 265.109,4.671 C269.713,4.739 272.117,6.807 272.117,11.057 C272.117,15.662 269.135,17.931 264.953,17.998 Z M282.818,32.013 C281.683,30.746 280.904,29.122 279.546,25.584 C278.186,22.214 276.007,20.649 271.729,19.97 C271.506,19.935 271.337,19.745 271.337,19.52 C271.337,19.296 271.503,19.108 271.723,19.071 C278.888,17.876 282.239,14.447 282.239,9.922 C282.239,4.382 277.857,1.135 269.202,1.135 L248.544,1.135 C247.9,1.135 247.377,1.657 247.377,2.3 L247.377,2.582 C247.377,3.107 247.728,3.567 248.235,3.706 L252.561,4.894 L252.561,32.592 L248.239,33.761 C247.731,33.898 247.377,34.36 247.377,34.886 L247.377,35.097 C247.377,35.741 247.9,36.263 248.544,36.263 L266.057,36.263 C266.701,36.263 267.222,35.741 267.222,35.097 C267.222,34.576 266.876,34.118 266.375,33.976 L262.195,32.793 L262.195,21.402 L263.262,21.402 C266.799,21.402 268.134,22.025 269.358,25.072 L271.405,30.389 C273.095,34.861 274.808,36.263 278.346,36.263 L285.545,36.263 C286.189,36.263 286.711,35.741 286.711,35.097 L286.711,34.965 C286.711,34.451 286.366,34.007 285.873,33.861 C284.556,33.472 283.633,32.96 282.818,32.013 L282.818,32.013 Z" id="Fill-8"></path>
                    <path d="M328.527,22.183 C328.118,22.14 327.717,22.315 327.471,22.644 L323.263,28.276 C320.704,31.591 319.147,32.659 315.877,32.725 L311.849,32.881 L311.849,4.894 L316.303,3.702 C316.812,3.565 317.167,3.103 317.167,2.576 L317.167,2.3 C317.167,1.657 316.645,1.135 316.002,1.135 L298.2,1.135 C297.555,1.135 297.034,1.657 297.034,2.3 L297.034,2.582 C297.034,3.107 297.384,3.567 297.89,3.706 L302.216,4.894 L302.216,32.592 L297.895,33.761 C297.387,33.898 297.034,34.36 297.034,34.886 L297.034,35.097 C297.034,35.741 297.555,36.263 298.2,36.263 L327.304,36.263 C327.902,36.263 328.403,35.811 328.463,35.215 L329.663,23.47 C329.728,22.832 329.263,22.26 328.625,22.193 L328.527,22.183" id="Fill-9"></path>
                    <path d="M360.282,2.3 L360.282,2.53 C360.282,2.97 360.53,3.374 360.923,3.571 L364.397,5.317 L357.511,17.777 C357.459,17.874 357.32,17.875 357.265,17.779 L349.937,4.894 L353.522,3.534 C353.975,3.362 354.274,2.928 354.274,2.444 L354.274,2.3 C354.274,1.657 353.753,1.135 353.109,1.135 L335.952,1.135 C335.308,1.135 334.787,1.657 334.787,2.3 L334.787,2.7 C334.787,3.168 335.065,3.589 335.496,3.772 L339.592,5.517 L349.871,22.603 L349.871,32.592 L345.358,33.767 C344.844,33.901 344.486,34.364 344.486,34.895 L344.486,35.097 C344.486,35.741 345.007,36.263 345.652,36.263 L363.788,36.263 C364.432,36.263 364.954,35.741 364.954,35.097 L364.954,34.898 C364.954,34.366 364.593,33.901 364.079,33.769 L359.503,32.592 L359.503,21.313 L369.781,5.451 L373.68,3.774 C374.109,3.589 374.386,3.168 374.386,2.703 L374.386,2.3 C374.386,1.657 373.864,1.135 373.22,1.135 L361.447,1.135 C360.803,1.135 360.282,1.657 360.282,2.3" id="Fill-10"></path>
                </g>
                <g id="erie-co" transform="translate(117.886081, 273.650737)" fill="#FFFFFF">
                    <path d="M6.84691929,11.3662628 C7.10091929,11.4432628 7.28791929,11.5982628 7.40891929,11.8292628 C7.53691929,12.0652628 7.56291929,12.3082628 7.48891929,12.5642628 C7.41291929,12.8152628 7.25891929,13.0012628 7.02591929,13.1272628 C6.79691929,13.2532628 6.55391929,13.2812628 6.30191929,13.2042628 L0.683919292,11.5372628 C0.430919292,11.4602628 0.243919292,11.3062628 0.121919292,11.0742628 C-0.0070807078,10.8442628 -0.0330807078,10.6042628 0.0409192922,10.3492628 L2.80391929,1.04826278 C2.88091929,0.792262776 3.03691929,0.602262776 3.26991929,0.480262776 C3.49891929,0.350262776 3.74091929,0.321262776 3.99391929,0.398262776 L4.00191929,0.398262776 L9.60591929,2.08226278 C9.85891929,2.15926278 10.0499193,2.31426278 10.1759193,2.54926278 C10.2969193,2.77926278 10.3219193,3.02326278 10.2469193,3.27826278 C10.1719193,3.53026278 10.0169193,3.71726278 9.78391929,3.83826278 C9.55491929,3.96826278 9.31191929,3.99626278 9.05991929,3.92026278 L9.05191929,3.92026278 L4.37091929,2.51226278 L3.53391929,5.32726278 L6.91691929,6.33326278 C7.16991929,6.40626278 7.36091929,6.56026278 7.49091929,6.78726278 C7.61591929,7.02326278 7.64191929,7.26626278 7.56791929,7.52226278 C7.49191929,7.77326278 7.33591929,7.96426278 7.10291929,8.09326278 C6.86991929,8.21526278 6.62691929,8.23526278 6.37291929,8.16226278 L2.98991929,7.15626278 L2.15491929,9.97226278 L6.84691929,11.3662628" id="Fill-11"></path>
                    <path d="M21.0159193,9.89526278 C21.4619193,9.97626278 21.8729193,9.91426278 22.2489193,9.71226278 C22.6219193,9.50126278 22.8509193,9.20526278 22.9359193,8.81926278 C23.0259193,8.41826278 22.9359193,8.04026278 22.6729193,7.69126278 C22.4069193,7.33926278 22.0459193,7.11126278 21.5879193,7.01026278 L19.2489193,6.49526278 L18.6149193,9.36226278 L21.0159193,9.89526278 Z M24.7919193,9.22926278 C24.6399193,9.92726278 24.2829193,10.5072628 23.7269193,10.9732628 C23.1879193,11.4402628 22.5509193,11.7162628 21.8189193,11.8052628 L22.8079193,15.8362628 C22.8689193,16.0882628 22.8309193,16.3232628 22.6929193,16.5462628 C22.5589193,16.7732628 22.3649193,16.9152628 22.1069193,16.9812628 C21.9609193,17.0172628 21.8169193,17.0172628 21.6749193,16.9842628 C21.2909193,16.8992628 21.0519193,16.6642628 20.9609193,16.2782628 L19.8069193,11.5732628 L18.2029193,11.2172628 L17.3689193,14.9882628 C17.3119193,15.2402628 17.1729193,15.4392628 16.9479193,15.5812628 C16.7279193,15.7232628 16.4889193,15.7642628 16.2309193,15.7072628 C15.9779193,15.6492628 15.7789193,15.5122628 15.6349193,15.2932628 C15.4969193,15.0652628 15.4569193,14.8302628 15.5119193,14.5752628 L17.5959193,5.15626278 C17.6529193,4.90126278 17.7909193,4.70226278 18.0099193,4.56126278 C18.2349193,4.41826278 18.4739193,4.37426278 18.7279193,4.43126278 L21.9989193,5.15626278 C22.9729193,5.37126278 23.7309193,5.87426278 24.2749193,6.67026278 C24.8229193,7.46526278 24.9949193,8.31626278 24.7919193,9.22926278 L24.7919193,9.22926278 Z" id="Fill-12"></path>
                    <path d="M32.3449193,18.9552628 C32.0829193,18.9152628 31.8779193,18.7852628 31.7259193,18.5702628 C31.5679193,18.3592628 31.5109193,18.1242628 31.5529193,17.8602628 L33.0789193,8.32826278 C33.1189193,8.06926278 33.2489193,7.86226278 33.4639193,7.71226278 C33.6749193,7.55426278 33.9099193,7.49726278 34.1719193,7.53726278 C34.4329193,7.57826278 34.6379193,7.70826278 34.7899193,7.92326278 C34.9489193,8.13426278 35.0049193,8.36926278 34.9649193,8.63326278 L33.4379193,18.1652628 C33.3969193,18.4242628 33.2669193,18.6312628 33.0529193,18.7812628 C32.8419193,18.9402628 32.6059193,18.9962628 32.3449193,18.9552628" id="Fill-13"></path>
                    <path d="M49.2159193,19.1472628 C49.4799193,19.1712628 49.6929193,19.2882628 49.8569193,19.4952628 C50.0249193,19.7022628 50.0959193,19.9382628 50.0699193,20.1962628 C50.0429193,20.4602628 49.9259193,20.6762628 49.7209193,20.8382628 C49.5179193,21.0082628 49.2869193,21.0772628 49.0229193,21.0532628 L43.1949193,20.4652628 C42.9309193,20.4402628 42.7179193,20.3222628 42.5559193,20.1152628 C42.3859193,19.9132628 42.3139193,19.6822628 42.3409193,19.4182628 L43.3119193,9.76526278 C43.3409193,9.49726278 43.4559193,9.28126278 43.6629193,9.11926278 C43.8639193,8.94926278 44.0969193,8.87626278 44.3589193,8.90426278 L44.3669193,8.90426278 L50.1869193,9.50926278 C50.4489193,9.53326278 50.6659193,9.65026278 50.8339193,9.85726278 C50.9989193,10.0652628 51.0679193,10.3002628 51.0409193,10.5602628 C51.0149193,10.8232628 50.8969193,11.0382628 50.6929193,11.2002628 C50.4899193,11.3702628 50.2589193,11.4402628 49.9949193,11.4152628 L49.9869193,11.4152628 L45.1249193,10.9082628 L44.8309193,13.8332628 L48.3419193,14.1862628 C48.6029193,14.2102628 48.8209193,14.3232628 48.9909193,14.5262628 C49.1589193,14.7332628 49.2299193,14.9692628 49.2039193,15.2322628 C49.1779193,15.4962628 49.0599193,15.7112628 48.8529193,15.8772628 C48.6479193,16.0432628 48.4129193,16.1122628 48.1489193,16.0842628 L44.6379193,15.7312628 L44.3449193,18.6552628 L49.2159193,19.1472628" id="Fill-15"></path>
                    <path d="M67.1379193,16.1292628 C67.1539193,15.1352628 67.9959193,14.2952628 68.9899193,14.3122628 C69.9839193,14.3272628 70.7989193,15.1912628 70.7829193,16.1862628 C70.7659193,17.1582628 69.9249193,17.9942628 68.9309193,17.9782628 C67.9369193,17.9662628 67.1219193,17.0982628 67.1379193,16.1292628" id="Fill-17"></path>
                    <path d="M94.2549193,20.6392628 C92.6709193,20.8012628 91.2579193,20.3842628 90.0149193,19.3772628 C88.7779193,18.3672628 88.0749193,17.0692628 87.9109193,15.4872628 C87.7469193,13.8982628 88.1689193,12.4862628 89.1729193,11.2492628 C90.1829193,10.0042628 91.4809193,9.30226278 93.0629193,9.13626278 C94.3659193,9.00226278 95.5769193,9.27726278 96.6959193,9.96326278 C96.9159193,10.1062628 97.0579193,10.3002628 97.1229193,10.5562628 C97.1819193,10.8152628 97.1429193,11.0592628 97.0029193,11.2812628 C96.8639193,11.5092628 96.6659193,11.6502628 96.4129193,11.7112628 C96.1539193,11.7692628 95.9099193,11.7322628 95.6849193,11.5982628 C94.9429193,11.1402628 94.1359193,10.9532628 93.2619193,11.0462628 C92.2029193,11.1552628 91.3389193,11.6222628 90.6649193,12.4532628 C89.9919193,13.2812628 89.7099193,14.2272628 89.8199193,15.2892628 C89.9299193,16.3482628 90.3979193,17.2112628 91.2279193,17.8852628 C92.0569193,18.5582628 92.9999193,18.8422628 94.0569193,18.7322628 C95.0539193,18.6272628 95.8839193,18.2052628 96.5449193,17.4632628 C96.7189193,17.2692628 96.9409193,17.1582628 97.2039193,17.1432628 C97.4679193,17.1262628 97.6989193,17.2112628 97.8959193,17.3902628 C98.0919193,17.5652628 98.1989193,17.7832628 98.2159193,18.0472628 C98.2329193,18.3112628 98.1539193,18.5422628 97.9789193,18.7402628 C96.9829193,19.8522628 95.7399193,20.4842628 94.2549193,20.6392628" id="Fill-18"></path>
                    <path d="M107.948919,8.92926278 C106.891919,9.11526278 106.054919,9.65026278 105.437919,10.5312628 C104.817919,11.4192628 104.600919,12.3932628 104.786919,13.4512628 C104.973919,14.5062628 105.510919,15.3422628 106.397919,15.9582628 C107.279919,16.5832628 108.248919,16.7982628 109.305919,16.6112628 C110.362919,16.4252628 111.200919,15.8892628 111.823919,15.0012628 C112.440919,14.1212628 112.656919,13.1512628 112.468919,12.0932628 C112.282919,11.0342628 111.746919,10.1942628 110.865919,9.57326278 C109.978919,8.95726278 109.006919,8.74226278 107.948919,8.92926278 Z M109.637919,18.4932628 C108.060919,18.7732628 106.614919,18.4482628 105.299919,17.5232628 C103.983919,16.6072628 103.184919,15.3572628 102.907919,13.7802628 C102.626919,12.2022628 102.948919,10.7542628 103.871919,9.43626278 C104.790919,8.12626278 106.039919,7.32626278 107.617919,7.05126278 C109.196919,6.77126278 110.641919,7.09226278 111.959919,8.00826278 C113.274919,8.93326278 114.071919,10.1822628 114.349919,11.7602628 C114.626919,13.3382628 114.308919,14.7862628 113.389919,16.0962628 C112.464919,17.4142628 111.215919,18.2132628 109.637919,18.4932628 L109.637919,18.4932628 Z" id="Fill-19"></path>
                    <path d="M120.072919,4.54026278 C120.329919,4.47626278 120.569919,4.51626278 120.791919,4.65326278 C121.019919,4.78726278 121.165919,4.98226278 121.228919,5.23726278 L123.317919,13.7232628 L127.472919,12.7012628 C127.730919,12.6412628 127.971919,12.6772628 128.200919,12.8152628 C128.421919,12.9482628 128.566919,13.1442628 128.628919,13.3982628 C128.691919,13.6582628 128.655919,13.8982628 128.521919,14.1162628 C128.383919,14.3482628 128.186919,14.4942628 127.928919,14.5552628 L122.844919,15.8082628 C122.588919,15.8692628 122.347919,15.8322628 122.124919,15.6942628 C121.897919,15.5612628 121.753919,15.3662628 121.690919,15.1072628 L119.372919,5.69626278 C119.309919,5.43726278 119.348919,5.19726278 119.488919,4.97426278 C119.619919,4.74726278 119.816919,4.60126278 120.072919,4.54026278" id="Fill-20"></path>
                    <path d="M136.104919,2.10726278 C135.081919,2.43126278 134.321919,3.07126278 133.824919,4.02526278 C133.325919,4.98626278 133.238919,5.98026278 133.561919,7.00226278 C133.885919,8.02426278 134.526919,8.78326278 135.485919,9.27726278 C136.443919,9.78026278 137.432919,9.87026278 138.456919,9.54526278 C139.479919,9.22126278 140.241919,8.58026278 140.740919,7.61826278 C141.237919,6.66126278 141.322919,5.67626278 140.999919,4.64926278 C140.675919,3.62726278 140.036919,2.86526278 139.078919,2.36226278 C138.119919,1.86726278 137.128919,1.78226278 136.104919,2.10726278 Z M139.032919,11.3662628 C137.503919,11.8502628 136.029919,11.7202628 134.605919,10.9732628 C133.177919,10.2392628 132.224919,9.10426278 131.740919,7.57826278 C131.256919,6.04926278 131.386919,4.57226278 132.128919,3.14526278 C132.866919,1.72126278 134.000919,0.768262776 135.528919,0.285262776 C137.057919,-0.196737224 138.533919,-0.066737224 139.961919,0.666262776 C141.383919,1.41326278 142.336919,2.54926278 142.821919,4.07326278 C143.303919,5.60326278 143.175919,7.07526278 142.435919,8.49926278 C141.693919,9.92726278 140.559919,10.8842628 139.032919,11.3662628 L139.032919,11.3662628 Z" id="Fill-21"></path>
                </g>
                <g id="symbol" transform="translate(110.247000, 0.000000)" fill="#D7B178">
                    <path d="M76.429,67.075 C77.733,67.084 78.322,68.256 78.322,69.092 C78.322,70.489 77.417,72.766 76.428,74.762 C75.441,72.768 74.536,70.494 74.536,69.092 C74.536,68.256 75.126,67.084 76.429,67.075 Z M98.875,60.289 C99.822,60.289 100.589,59.523 100.589,58.577 C100.589,57.631 99.822,56.865 98.875,56.865 L92.014,56.865 C91.067,56.865 90.299,57.631 90.299,58.577 C90.299,59.523 91.067,60.289 92.014,60.289 L93.354,60.289 L84.198,89.231 L78.385,78.386 C79.46,76.511 81.752,72.152 81.752,69.092 C81.752,66.431 79.776,63.682 76.465,63.655 C76.457,63.655 76.449,63.65 76.441,63.65 C76.437,63.65 76.434,63.651 76.429,63.651 C76.425,63.651 76.422,63.65 76.418,63.65 C76.409,63.65 76.401,63.655 76.393,63.655 C73.084,63.682 71.107,66.431 71.107,69.092 C71.107,72.152 73.399,76.511 74.473,78.386 L68.66,89.231 L59.505,60.289 L60.843,60.289 C61.791,60.289 62.559,59.523 62.559,58.577 C62.559,57.631 61.791,56.865 60.843,56.865 L53.984,56.865 C53.036,56.865 52.269,57.631 52.269,58.577 C52.269,59.523 53.036,60.289 53.984,60.289 L55.908,60.289 L66.616,94.139 C66.823,94.796 67.405,95.264 68.092,95.327 C68.146,95.333 68.199,95.335 68.251,95.335 C68.879,95.335 69.462,94.991 69.763,94.431 L76.429,81.995 L83.095,94.431 C83.396,94.991 83.98,95.335 84.608,95.335 C84.659,95.335 84.713,95.333 84.766,95.327 C85.454,95.264 86.036,94.796 86.242,94.139 L96.95,60.289 L98.875,60.289 L98.875,60.289 Z" id="Fill-22"></path>
                    <path d="M73.887,117.672 C71.839,112.303 67.022,109.017 60.672,108.654 C57.052,108.466 52.642,109.671 49.689,111.69 C46.492,113.874 43.346,117.863 45,121.917 C46.202,124.863 49.168,126.258 52.363,125.365 C55.774,124.427 59.052,120.838 58.191,115.173 C58.047,114.239 57.171,113.601 56.236,113.738 C55.301,113.88 54.657,114.753 54.799,115.689 C55.347,119.286 53.448,121.516 51.452,122.066 C50.887,122.217 48.973,122.578 48.177,120.626 C47.232,118.308 49.9,115.695 51.626,114.514 C53.966,112.913 57.607,111.881 60.476,112.074 C65.489,112.359 69.114,114.779 70.681,118.891 C72.396,123.39 71.158,128.797 67.596,132.346 C64.921,135.013 62.17,135.715 59.259,136.458 C57.597,136.882 55.898,137.314 54.269,138.135 C54.158,133.919 56.141,130.814 58.3,129.184 C60.691,127.381 63.585,127.089 66.044,128.393 C66.88,128.835 67.92,128.522 68.363,127.687 C68.808,126.852 68.492,125.814 67.655,125.371 C63.983,123.419 59.713,123.825 56.231,126.454 C51.863,129.75 49.949,135.497 51.235,141.448 C51.363,142.04 51.796,142.521 52.372,142.713 C52.55,142.77 52.732,142.799 52.912,142.799 C53.321,142.799 53.724,142.652 54.041,142.374 C55.747,140.886 57.768,140.37 60.109,139.774 C63.188,138.989 66.679,138.099 70.019,134.769 C74.521,130.281 76.075,123.411 73.887,117.672" id="Fill-23"></path>
                    <path d="M24.847,96.093 C27.479,92.618 27.885,88.356 25.933,84.69 C25.488,83.855 24.451,83.539 23.613,83.983 C22.776,84.426 22.461,85.463 22.904,86.298 C24.214,88.755 23.917,91.644 22.112,94.028 C20.48,96.185 17.379,98.158 13.145,98.051 C13.968,96.425 14.401,94.729 14.826,93.069 C15.57,90.163 16.273,87.418 18.944,84.747 C22.501,81.194 27.916,79.955 32.427,81.669 C36.544,83.234 38.969,86.85 39.254,91.854 C39.419,94.719 38.412,98.353 36.81,100.69 C35.627,102.411 33.014,105.082 30.687,104.133 C28.731,103.338 29.088,101.429 29.244,100.863 C29.795,98.871 32.017,96.968 35.634,97.52 C36.546,97.669 37.445,97.02 37.587,96.084 C37.729,95.149 37.086,94.276 36.148,94.135 C30.474,93.281 26.876,96.548 25.938,99.954 C25.056,103.151 26.443,106.104 29.393,107.304 C30.166,107.617 30.936,107.758 31.692,107.758 C34.909,107.758 37.868,105.208 39.639,102.623 C41.664,99.673 42.885,95.268 42.68,91.659 C42.316,85.32 39.024,80.513 33.646,78.469 C27.893,76.283 21.012,77.837 16.518,82.328 C13.182,85.664 12.29,89.149 11.503,92.222 C10.906,94.559 10.389,96.576 8.898,98.278 C8.498,98.735 8.37,99.368 8.559,99.945 C8.751,100.52 9.233,100.951 9.826,101.079 C15.792,102.358 21.546,100.451 24.847,96.093" id="Fill-24"></path>
                    <path d="M45.051,99.922 C48.445,101.175 50.839,103.433 52.368,106.824 C52.653,107.459 53.279,107.833 53.934,107.833 C54.168,107.833 54.407,107.785 54.636,107.682 C55.5,107.294 55.884,106.28 55.496,105.418 C53.595,101.206 50.481,98.277 46.242,96.712 C45.348,96.378 44.366,96.838 44.039,97.723 C43.71,98.609 44.163,99.595 45.051,99.922" id="Fill-25"></path>
                    <path d="M36.266,123.109 C33.02,126.351 27.584,126.739 24.976,126.665 C24.941,124.082 25.29,118.635 28.538,115.395 C28.539,115.395 28.539,115.393 28.539,115.393 C30.544,113.392 34.997,113.988 37.447,114.604 C37.797,117.481 37.752,121.627 36.266,123.109 Z M40.806,113.866 L47.137,107.547 C47.805,106.878 47.805,105.793 47.137,105.124 C46.468,104.455 45.38,104.455 44.711,105.124 L38.486,111.337 C35.942,110.659 29.635,109.46 26.114,112.972 C26.114,112.972 26.114,112.972 26.112,112.974 C20.588,118.486 21.591,128.08 21.638,128.485 C21.726,129.282 22.354,129.908 23.151,129.996 C23.264,130.01 24.086,130.096 25.334,130.096 C28.58,130.096 34.702,129.511 38.693,125.529 C41.636,122.591 41.13,116.285 40.806,113.866 L40.806,113.866 Z" id="Fill-26"></path>
                    <path d="M49.582,129.402 C47.392,128.313 45.227,127.096 43.149,125.788 C42.347,125.285 41.287,125.524 40.783,126.322 C40.278,127.123 40.517,128.179 41.319,128.684 C43.493,130.052 45.759,131.326 48.05,132.466 C48.297,132.589 48.558,132.646 48.814,132.646 C49.444,132.646 50.05,132.299 50.351,131.698 C50.774,130.852 50.43,129.824 49.582,129.402" id="Fill-27"></path>
                    <path d="M24.463,111.746 C24.794,111.746 25.129,111.65 25.423,111.449 C26.208,110.92 26.411,109.854 25.879,109.073 C24.512,107.063 23.222,104.945 22.045,102.776 C21.591,101.947 20.556,101.637 19.72,102.086 C18.887,102.537 18.577,103.576 19.029,104.407 C20.261,106.675 21.613,108.891 23.043,110.995 C23.374,111.484 23.913,111.746 24.463,111.746" id="Fill-28"></path>
                    <path d="M76.441,100.183 C76.437,100.183 76.433,100.183 76.429,100.183 C76.425,100.183 76.422,100.183 76.418,100.183 C76.417,100.183 76.415,100.184 76.413,100.184 C71.319,100.189 66.508,101.621 62.865,104.22 C62.093,104.771 61.915,105.839 62.466,106.609 C62.801,107.076 63.328,107.325 63.864,107.325 C64.208,107.325 64.557,107.221 64.859,107.006 C67.928,104.816 72.038,103.61 76.429,103.607 C80.824,103.61 84.93,104.816 87.999,107.006 C88.301,107.221 88.65,107.325 88.995,107.325 C89.53,107.325 90.056,107.076 90.391,106.609 C90.943,105.841 90.765,104.771 89.994,104.22 C86.352,101.621 81.543,100.189 76.445,100.184 C76.443,100.184 76.442,100.183 76.441,100.183" id="Fill-29"></path>
                    <path d="M52.18,75.731 C52.174,70.677 50.612,65.887 47.779,62.241 C47.199,61.496 46.121,61.355 45.373,61.938 C44.625,62.517 44.488,63.592 45.068,64.339 C47.442,67.393 48.748,71.442 48.751,75.749 C48.748,80.054 47.442,84.104 45.068,87.158 C44.488,87.905 44.625,88.981 45.373,89.559 C45.685,89.802 46.054,89.919 46.422,89.919 C46.935,89.919 47.44,89.691 47.779,89.256 C50.612,85.61 52.174,80.82 52.18,75.765 C52.18,75.763 52.181,75.762 52.181,75.76 C52.181,75.756 52.181,75.752 52.181,75.749 C52.181,75.745 52.181,75.741 52.181,75.737 C52.181,75.735 52.18,75.733 52.18,75.731" id="Fill-30"></path>
                    <path d="M56.231,25.045 C59.713,27.672 63.981,28.074 67.655,26.128 C68.492,25.685 68.808,24.647 68.363,23.812 C67.92,22.977 66.88,22.662 66.044,23.106 C63.583,24.41 60.685,24.116 58.3,22.315 C56.141,20.685 54.158,17.58 54.269,13.364 C55.898,14.185 57.597,14.617 59.259,15.041 C62.17,15.784 64.921,16.485 67.596,19.152 C71.156,22.7 72.396,28.107 70.681,32.606 C69.114,36.716 65.489,39.138 60.476,39.423 C57.615,39.597 53.97,38.584 51.628,36.985 C49.901,35.804 47.232,33.189 48.177,30.873 C48.973,28.919 50.883,29.276 51.454,29.433 C53.448,29.981 55.347,32.213 54.799,35.812 C54.657,36.746 55.301,37.619 56.238,37.76 C57.146,37.896 58.047,37.26 58.191,36.324 C59.052,30.659 55.774,27.07 52.365,26.134 C49.153,25.241 46.2,26.636 45,29.582 C43.348,33.632 46.492,37.623 49.689,39.809 C52.43,41.681 56.417,42.865 59.86,42.865 C60.133,42.865 60.405,42.858 60.672,42.842 C67.022,42.48 71.839,39.192 73.887,33.823 C76.075,28.086 74.521,21.216 70.019,16.73 C66.679,13.4 63.188,12.51 60.109,11.725 C57.768,11.129 55.747,10.613 54.041,9.125 C53.586,8.725 52.954,8.599 52.372,8.786 C51.796,8.978 51.363,9.459 51.235,10.051 C49.949,16.002 51.863,21.749 56.231,25.045" id="Fill-31"></path>
                    <path d="M11.503,59.275 C12.29,62.35 13.182,65.835 16.518,69.169 C19.655,72.306 23.954,74.008 28.22,74.008 C30.067,74.008 31.908,73.689 33.646,73.028 C39.024,70.984 42.316,66.177 42.68,59.838 C42.885,56.231 41.664,51.825 39.64,48.876 C37.455,45.683 33.458,42.554 29.393,44.195 C26.443,45.395 25.056,48.346 25.938,51.545 C26.876,54.949 30.457,58.205 36.15,57.362 C37.086,57.221 37.729,56.348 37.587,55.411 C37.443,54.477 36.568,53.83 35.632,53.977 C32.044,54.529 29.797,52.628 29.244,50.635 C29.088,50.07 28.731,48.161 30.687,47.366 C33.01,46.432 35.627,49.086 36.81,50.809 C38.412,53.146 39.419,56.78 39.254,59.643 C38.969,64.647 36.542,68.263 32.425,69.828 C27.921,71.542 22.501,70.305 18.944,66.75 C16.271,64.079 15.57,61.334 14.826,58.428 C14.401,56.768 13.968,55.071 13.145,53.445 C17.431,53.346 20.48,55.314 22.112,57.471 C23.917,59.855 24.214,62.744 22.904,65.201 C22.461,66.036 22.776,67.073 23.613,67.516 C24.451,67.958 25.488,67.644 25.933,66.809 C27.885,63.145 27.479,58.881 24.849,55.406 C21.546,51.044 15.783,49.139 9.826,50.418 C9.233,50.546 8.751,50.977 8.559,51.552 C8.37,52.129 8.498,52.762 8.898,53.218 C10.389,54.921 10.906,56.938 11.503,59.275" id="Fill-32"></path>
                    <path d="M54.636,43.815 C53.766,43.423 52.755,43.811 52.368,44.673 C50.839,48.064 48.447,50.322 45.051,51.575 C44.163,51.902 43.71,52.888 44.039,53.774 C44.294,54.464 44.95,54.892 45.647,54.892 C45.844,54.892 46.045,54.858 46.242,54.785 C50.483,53.22 53.597,50.292 55.496,46.079 C55.884,45.215 55.5,44.203 54.636,43.815" id="Fill-33"></path>
                    <path d="M36.266,28.39 C37.752,29.87 37.797,34.016 37.447,36.893 C34.997,37.506 30.544,38.109 28.539,36.104 C25.29,32.86 24.941,27.414 24.976,24.831 C27.563,24.798 33.005,25.132 36.266,28.39 Z M33.041,40.917 C35.244,40.917 37.28,40.48 38.485,40.159 L44.711,46.373 C45.046,46.707 45.486,46.874 45.924,46.874 C46.362,46.874 46.802,46.707 47.137,46.373 C47.805,45.704 47.805,44.619 47.137,43.95 L40.806,37.631 C41.13,35.212 41.636,28.906 38.693,25.967 C33.17,20.456 23.555,21.455 23.151,21.503 C22.354,21.591 21.726,22.217 21.638,23.014 C21.591,23.419 20.588,33.011 26.112,38.527 C27.965,40.376 30.595,40.917 33.041,40.917 L33.041,40.917 Z" id="Fill-34"></path>
                    <path d="M42.236,25.973 C42.548,25.973 42.865,25.887 43.149,25.709 C45.214,24.41 47.377,23.194 49.582,22.095 C50.43,21.671 50.774,20.643 50.351,19.799 C49.928,18.952 48.897,18.608 48.05,19.031 C45.744,20.18 43.48,21.453 41.319,22.813 C40.517,23.318 40.278,24.374 40.783,25.174 C41.11,25.69 41.666,25.973 42.236,25.973" id="Fill-35"></path>
                    <path d="M19.72,49.413 C19.98,49.552 20.259,49.619 20.535,49.619 C21.144,49.619 21.734,49.294 22.045,48.723 C23.22,46.558 24.512,44.438 25.881,42.424 C26.411,41.641 26.206,40.577 25.423,40.046 C24.637,39.514 23.572,39.721 23.041,40.502 C21.611,42.61 20.259,44.827 19.029,47.091 C18.577,47.923 18.887,48.962 19.72,49.413" id="Fill-36"></path>
                    <path d="M76.413,51.313 C76.415,51.313 76.417,51.314 76.418,51.314 C76.422,51.314 76.425,51.313 76.429,51.313 C76.433,51.313 76.437,51.314 76.441,51.314 C76.442,51.314 76.443,51.313 76.445,51.313 C81.545,51.307 86.354,49.876 89.994,47.278 C90.765,46.728 90.943,45.658 90.391,44.89 C89.84,44.121 88.77,43.939 87.999,44.493 C84.932,46.683 80.824,47.887 76.429,47.889 C72.036,47.887 67.926,46.683 64.859,44.493 C64.088,43.945 63.018,44.123 62.466,44.89 C61.915,45.66 62.093,46.728 62.865,47.278 C66.506,49.876 71.317,51.307 76.413,51.313" id="Fill-37"></path>
                    <path d="M86.269,139.274 C85.412,138.87 84.393,139.236 83.986,140.09 C81.979,144.328 78.047,146.906 76.425,147.832 C74.803,146.911 70.891,144.351 68.873,140.09 C68.469,139.234 67.447,138.863 66.589,139.274 C65.734,139.677 65.366,140.697 65.772,141.553 C68.608,147.541 74.349,150.647 75.506,151.225 C75.515,151.23 75.525,151.233 75.533,151.238 C75.625,151.284 76.073,151.487 76.429,151.487 C76.785,151.487 77.23,151.286 77.319,151.242 C77.332,151.235 77.345,151.23 77.358,151.223 C78.526,150.638 84.255,147.533 87.087,141.553 C87.492,140.697 87.125,139.677 86.269,139.274" id="Fill-38"></path>
                    <path d="M96.628,126.452 C93.146,123.829 88.876,123.425 85.203,125.371 C84.367,125.814 84.05,126.852 84.495,127.687 C84.939,128.522 85.978,128.835 86.814,128.393 C89.274,127.089 92.17,127.379 94.558,129.184 C96.717,130.814 98.702,133.919 98.591,138.135 C96.963,137.314 95.262,136.882 93.599,136.458 C90.688,135.715 87.938,135.015 85.262,132.346 C81.7,128.797 80.462,123.39 82.176,118.891 C83.745,114.779 87.37,112.359 92.382,112.074 C95.236,111.891 98.891,112.915 101.232,114.514 C102.959,115.695 105.627,118.308 104.681,120.626 C103.885,122.58 101.973,122.223 101.407,122.066 C99.411,121.516 97.511,119.286 98.059,115.689 C98.201,114.753 97.557,113.88 96.622,113.738 C95.671,113.597 94.811,114.239 94.668,115.173 C93.806,120.84 97.085,124.429 100.496,125.365 C103.7,126.252 106.657,124.861 107.859,121.917 C109.512,117.863 106.366,113.874 103.17,111.69 C100.216,109.671 95.81,108.464 92.187,108.654 C85.837,109.017 81.019,112.303 78.971,117.672 C76.783,123.411 78.338,130.281 82.839,134.769 C86.179,138.099 89.67,138.989 92.752,139.774 C95.092,140.37 97.114,140.886 98.819,142.374 C99.136,142.652 99.539,142.799 99.948,142.799 C100.128,142.799 100.312,142.77 100.488,142.713 C101.064,142.521 101.497,142.04 101.625,141.448 C102.911,135.495 100.995,129.75 96.628,126.452" id="Fill-39"></path>
                    <path d="M141.355,92.222 C140.569,89.149 139.676,85.664 136.34,82.328 C131.844,77.837 124.963,76.283 119.213,78.469 C113.836,80.513 110.544,85.32 110.18,91.659 C109.973,95.264 111.195,99.67 113.219,102.623 C114.99,105.208 117.949,107.758 121.167,107.758 C121.922,107.758 122.694,107.617 123.465,107.304 C126.415,106.104 127.802,103.151 126.92,99.954 C125.98,96.549 122.389,93.281 116.711,94.135 C115.773,94.276 115.13,95.149 115.271,96.084 C115.413,97.02 116.296,97.673 117.223,97.52 C120.86,96.97 123.063,98.871 123.615,100.863 C123.769,101.429 124.128,103.338 122.172,104.133 C119.851,105.082 117.229,102.411 116.048,100.69 C114.445,98.349 113.44,94.717 113.606,91.854 C113.891,86.85 116.316,83.234 120.433,81.669 C124.943,79.957 130.359,81.194 133.914,84.747 C136.586,87.418 137.288,90.163 138.033,93.069 C138.458,94.729 138.89,96.425 139.713,98.051 C135.433,98.118 132.379,96.181 130.746,94.028 C128.941,91.644 128.644,88.755 129.954,86.298 C130.398,85.463 130.082,84.426 129.246,83.983 C128.411,83.539 127.37,83.855 126.925,84.69 C124.973,88.356 125.38,92.618 128.011,96.093 C131.314,100.455 137.06,102.36 143.032,101.079 C143.626,100.951 144.107,100.52 144.298,99.945 C144.488,99.368 144.36,98.735 143.961,98.278 C142.469,96.576 141.953,94.559 141.355,92.222" id="Fill-40"></path>
                    <path d="M98.221,107.682 C98.45,107.785 98.689,107.833 98.924,107.833 C99.579,107.833 100.203,107.459 100.49,106.824 C102.021,103.431 104.416,101.175 107.807,99.922 C108.695,99.595 109.149,98.609 108.819,97.723 C108.492,96.838 107.51,96.38 106.617,96.712 C102.379,98.275 99.265,101.206 97.362,105.418 C96.974,106.28 97.358,107.294 98.221,107.682" id="Fill-41"></path>
                    <path d="M116.592,123.107 C115.107,121.627 115.061,117.483 115.411,114.606 C117.805,114.011 122.327,113.4 124.321,115.395 C127.571,118.637 127.919,124.085 127.882,126.668 C125.312,126.714 119.855,126.364 116.592,123.107 Z M114.372,111.336 L108.148,105.124 C107.478,104.455 106.39,104.455 105.72,105.124 C105.052,105.793 105.052,106.878 105.72,107.547 L112.052,113.866 C111.73,116.285 111.222,122.591 114.165,125.529 C118.158,129.513 124.279,130.096 127.525,130.096 C128.773,130.096 129.593,130.01 129.707,129.996 C130.505,129.908 131.132,129.282 131.22,128.485 C131.266,128.08 132.269,118.486 126.748,112.972 C123.224,109.46 116.917,110.658 114.372,111.336 L114.372,111.336 Z" id="Fill-42"></path>
                    <path d="M109.712,125.788 C107.625,127.1 105.461,128.317 103.278,129.402 C102.43,129.824 102.086,130.852 102.509,131.698 C102.809,132.299 103.417,132.646 104.046,132.646 C104.302,132.646 104.563,132.589 104.809,132.466 C107.091,131.33 109.357,130.057 111.541,128.684 C112.341,128.179 112.583,127.123 112.077,126.322 C111.572,125.524 110.515,125.278 109.712,125.788" id="Fill-43"></path>
                    <path d="M133.138,102.086 C132.304,101.637 131.262,101.947 130.813,102.776 C129.643,104.931 128.353,107.05 126.979,109.073 C126.447,109.854 126.65,110.92 127.435,111.449 C127.729,111.65 128.064,111.746 128.395,111.746 C128.945,111.746 129.485,111.482 129.816,110.995 C131.257,108.878 132.606,106.66 133.83,104.407 C134.281,103.576 133.971,102.537 133.138,102.086" id="Fill-44"></path>
                    <path d="M78.971,33.823 C81.019,39.192 85.837,42.48 92.187,42.842 C92.453,42.858 92.725,42.863 92.999,42.863 C96.442,42.863 100.428,41.681 103.172,39.809 C106.366,37.623 109.51,33.632 107.859,29.582 C106.657,26.64 103.7,25.253 100.496,26.131 C97.085,27.07 93.806,30.659 94.668,36.324 C94.811,37.26 95.693,37.9 96.62,37.76 C97.557,37.619 98.201,36.746 98.059,35.812 C97.511,32.211 99.411,29.981 101.407,29.433 C101.973,29.276 103.885,28.921 104.681,30.873 C105.627,33.189 102.957,35.804 101.232,36.985 C98.887,38.584 95.256,39.619 92.382,39.423 C87.37,39.138 83.745,36.716 82.176,32.606 C80.462,28.107 81.702,22.7 85.262,19.152 C87.938,16.484 90.688,15.784 93.599,15.041 C95.262,14.617 96.963,14.185 98.591,13.364 C98.702,17.58 96.717,20.685 94.558,22.315 C92.168,24.116 89.276,24.41 86.814,23.106 C85.978,22.662 84.939,22.977 84.495,23.812 C84.05,24.647 84.367,25.685 85.203,26.128 C88.874,28.073 93.144,27.67 96.628,25.047 C100.995,21.749 102.911,16.004 101.625,10.051 C101.497,9.459 101.064,8.978 100.488,8.786 C99.904,8.599 99.276,8.725 98.819,9.125 C97.114,10.613 95.092,11.129 92.752,11.725 C89.67,12.51 86.179,13.4 82.839,16.73 C78.338,21.216 76.783,28.086 78.971,33.823" id="Fill-45"></path>
                    <path d="M128.009,55.406 C125.38,58.881 124.973,63.145 126.925,66.809 C127.37,67.644 128.411,67.958 129.246,67.516 C130.082,67.073 130.398,66.036 129.954,65.201 C128.644,62.744 128.941,59.855 130.746,57.471 C132.377,55.314 135.416,53.337 139.713,53.445 C138.89,55.071 138.458,56.768 138.033,58.428 C137.288,61.334 136.588,64.079 133.914,66.75 C130.357,70.304 124.939,71.536 120.435,69.83 C116.316,68.265 113.891,64.647 113.606,59.643 C113.44,56.781 114.445,53.15 116.05,50.809 C117.229,49.086 119.838,46.423 122.172,47.366 C124.128,48.161 123.769,50.07 123.615,50.635 C123.061,52.628 120.824,54.513 117.225,53.977 C116.27,53.826 115.415,54.477 115.271,55.411 C115.13,56.348 115.773,57.221 116.709,57.362 C122.385,58.205 125.98,54.949 126.92,51.545 C127.802,48.346 126.415,45.395 123.465,44.195 C119.412,42.556 115.409,45.681 113.219,48.876 C111.195,51.829 109.973,56.235 110.18,59.838 C110.544,66.177 113.836,70.985 119.214,73.028 C120.952,73.689 122.792,74.008 124.638,74.008 C128.903,74.008 133.204,72.304 136.34,69.169 C139.676,65.835 140.569,62.35 141.355,59.275 C141.953,56.938 142.469,54.921 143.961,53.218 C144.36,52.762 144.488,52.129 144.298,51.552 C144.107,50.977 143.626,50.546 143.032,50.418 C137.068,49.134 131.314,51.046 128.009,55.406" id="Fill-46"></path>
                    <path d="M107.807,51.575 C104.414,50.322 102.021,48.066 100.49,44.673 C100.101,43.811 99.083,43.427 98.221,43.815 C97.358,44.203 96.974,45.217 97.362,46.079 C99.265,50.292 102.377,53.22 106.617,54.785 C106.813,54.858 107.014,54.892 107.212,54.892 C107.909,54.892 108.565,54.464 108.819,53.774 C109.149,52.888 108.695,51.902 107.807,51.575" id="Fill-47"></path>
                    <path d="M116.59,28.39 C119.838,25.15 125.324,24.802 127.882,24.835 C127.917,27.417 127.569,32.862 124.323,36.104 C122.315,38.109 117.861,37.506 115.411,36.893 C115.061,34.016 115.107,29.87 116.59,28.39 Z M112.052,37.631 L105.72,43.95 C105.052,44.619 105.052,45.704 105.72,46.373 C106.055,46.707 106.496,46.874 106.934,46.874 C107.373,46.874 107.813,46.707 108.148,46.373 L114.373,40.159 C115.578,40.48 117.613,40.917 119.817,40.917 C122.263,40.917 124.893,40.376 126.746,38.527 C126.746,38.527 126.748,38.527 126.748,38.525 C132.269,33.011 131.266,23.419 131.22,23.014 C131.132,22.217 130.505,21.591 129.707,21.503 C129.302,21.455 119.689,20.456 114.165,25.967 C111.222,28.906 111.73,35.212 112.052,37.631 L112.052,37.631 Z" id="Fill-48"></path>
                    <path d="M103.278,22.095 C105.474,23.19 107.638,24.405 109.712,25.709 C109.997,25.889 110.312,25.973 110.625,25.973 C111.195,25.973 111.752,25.69 112.077,25.174 C112.583,24.374 112.341,23.318 111.541,22.813 C109.371,21.449 107.106,20.177 104.809,19.031 C103.962,18.608 102.932,18.952 102.509,19.799 C102.086,20.643 102.43,21.671 103.278,22.095" id="Fill-49"></path>
                    <path d="M127.435,40.046 C126.652,40.577 126.447,41.641 126.977,42.424 C128.355,44.451 129.645,46.572 130.813,48.723 C131.123,49.294 131.714,49.619 132.323,49.619 C132.598,49.619 132.879,49.552 133.138,49.413 C133.971,48.962 134.281,47.923 133.83,47.091 C132.608,44.841 131.259,42.625 129.818,40.502 C129.284,39.721 128.219,39.516 127.435,40.046" id="Fill-50"></path>
                    <path d="M100.678,75.765 C100.685,80.82 102.247,85.61 105.08,89.256 C105.419,89.691 105.923,89.919 106.436,89.919 C106.802,89.919 107.173,89.802 107.485,89.559 C108.234,88.981 108.37,87.905 107.79,87.158 C105.418,84.104 104.11,80.054 104.108,75.749 C104.11,71.442 105.418,67.393 107.79,64.339 C108.37,63.592 108.234,62.517 107.485,61.938 C106.737,61.357 105.662,61.494 105.08,62.241 C102.247,65.887 100.685,70.677 100.678,75.731 C100.678,75.733 100.677,75.735 100.677,75.737 C100.677,75.741 100.678,75.745 100.678,75.749 C100.678,75.752 100.677,75.756 100.677,75.76 C100.677,75.762 100.678,75.763 100.678,75.765" id="Fill-51"></path>
                    <path d="M86.269,12.235 C85.412,12.639 84.393,12.274 83.986,11.418 C81.979,7.172 78.047,4.589 76.425,3.662 C74.803,4.584 70.891,7.149 68.873,11.418 C68.469,12.276 67.447,12.647 66.589,12.235 C65.734,11.832 65.366,10.81 65.772,9.952 C68.608,3.953 74.349,0.841 75.506,0.262 C75.515,0.257 75.525,0.254 75.533,0.249 C75.625,0.203 76.073,0 76.429,0 C76.785,0 77.23,0.201 77.319,0.245 C77.332,0.252 77.345,0.257 77.358,0.265 C78.526,0.85 84.255,3.961 87.087,9.952 C87.492,10.81 87.125,11.832 86.269,12.235" id="Fill-52"></path>
                    <path d="M140.624,85.715 C140.22,84.858 140.586,83.84 141.441,83.432 C145.688,81.425 148.271,77.494 149.198,75.872 C148.276,74.25 145.711,70.338 141.441,68.319 C140.584,67.915 140.213,66.893 140.624,66.036 C141.028,65.18 142.05,64.813 142.908,65.218 C148.906,68.054 152.018,73.795 152.597,74.953 C152.603,74.962 152.605,74.971 152.611,74.98 C152.657,75.071 152.86,75.519 152.86,75.876 C152.86,76.232 152.659,76.677 152.615,76.765 C152.607,76.778 152.603,76.791 152.595,76.804 C152.009,77.972 148.899,83.701 142.908,86.532 C142.05,86.938 141.028,86.571 140.624,85.715" id="Fill-53"></path>
                    <path d="M12.235,85.715 C12.639,84.858 12.274,83.84 11.418,83.432 C7.171,81.425 4.589,77.494 3.661,75.872 C4.584,74.25 7.148,70.338 11.418,68.319 C12.276,67.915 12.647,66.893 12.235,66.036 C11.831,65.18 10.809,64.813 9.952,65.218 C3.953,68.054 0.841,73.795 0.262,74.953 C0.256,74.962 0.254,74.971 0.248,74.98 C0.202,75.071 0,75.519 0,75.876 C0,76.232 0.2,76.677 0.245,76.765 C0.252,76.778 0.256,76.791 0.264,76.804 C0.849,77.972 3.961,83.701 9.952,86.532 C10.809,86.938 11.831,86.571 12.235,85.715" id="Fill-54"></path>
                </g>
            </g>
        </g>
    </g>
</svg>